<svg xmlns="http://www.w3.org/2000/svg" width="44" height="44" viewBox="0 0 44 44" fill="none"><script xmlns=""/>
<path d="M38.5184 0.375H12.1528C9.34592 0.375 7.06248 2.66531 7.06248 5.48063V7.06141H5.46482C2.65795 7.06141 0.374512 9.35172 0.374512 12.1686V38.5191C0.374512 41.3344 2.65795 43.6247 5.46482 43.6247H31.8312C34.6472 43.6247 36.9376 41.3344 36.9376 38.5191V36.9383H38.5184C41.3344 36.9383 43.6256 34.648 43.6256 31.8311V5.48047C43.6255 2.66531 41.3344 0.375 38.5184 0.375ZM33.8126 38.5189C33.8126 39.6114 32.9239 40.4995 31.8312 40.4995H5.46482C4.38139 40.4995 3.49951 39.6114 3.49951 38.5189V12.1684C3.49951 11.0759 4.38154 10.1862 5.46482 10.1862H8.62498H31.8312C32.9237 10.1862 33.8126 11.0758 33.8126 12.1684V35.3755V38.5189ZM40.5004 31.8309C40.5004 32.9234 39.6117 33.8131 38.5183 33.8131H36.9375V12.1684C36.9375 9.35172 34.6472 7.06125 31.8311 7.06125H10.1873V5.48047C10.1873 4.38797 11.0694 3.49984 12.1526 3.49984H38.5183C39.6115 3.49984 40.5004 4.38797 40.5004 5.48047V31.8309Z" fill="#FFA509"/>
<script xmlns=""/></svg>