<?xml version="1.0" encoding="UTF-8"?>
<svg id="Layer_1" data-name="Layer 1" xmlns="http://www.w3.org/2000/svg" version="1.1" xmlns:xlink="http://www.w3.org/1999/xlink" viewBox="0 0 64 64">
  <defs>
    <style>
      .cls-1 {
        fill: url(#linear-gradient-38);
      }

      .cls-1, .cls-2, .cls-3, .cls-4, .cls-5, .cls-6, .cls-7, .cls-8, .cls-9, .cls-10, .cls-11, .cls-12, .cls-13, .cls-14, .cls-15, .cls-16, .cls-17, .cls-18, .cls-19, .cls-20, .cls-21, .cls-22, .cls-23, .cls-24, .cls-25, .cls-26, .cls-27, .cls-28, .cls-29, .cls-30, .cls-31, .cls-32, .cls-33, .cls-34, .cls-35, .cls-36, .cls-37, .cls-38, .cls-39, .cls-40, .cls-41, .cls-42, .cls-43, .cls-44, .cls-45, .cls-46, .cls-47, .cls-48, .cls-49, .cls-50, .cls-51 {
        stroke-width: 0px;
      }

      .cls-2 {
        fill: url(#linear-gradient-12);
      }

      .cls-3 {
        fill: url(#linear-gradient-46);
      }

      .cls-3, .cls-7, .cls-12, .cls-13, .cls-30, .cls-32, .cls-52 {
        fill-rule: evenodd;
      }

      .cls-4 {
        fill: url(#linear-gradient-17);
      }

      .cls-5 {
        fill: url(#linear-gradient-19);
      }

      .cls-6 {
        fill: url(#linear-gradient-33);
      }

      .cls-7, .cls-10 {
        fill: #0d0821;
      }

      .cls-8 {
        fill: url(#linear-gradient-21);
      }

      .cls-9 {
        fill: url(#linear-gradient-6);
      }

      .cls-11 {
        fill: url(#linear-gradient-42);
      }

      .cls-12 {
        fill: url(#linear-gradient-45);
      }

      .cls-13, .cls-36 {
        fill: #fff8eb;
      }

      .cls-14 {
        fill: url(#linear-gradient-15);
      }

      .cls-15 {
        fill: url(#linear-gradient-11);
      }

      .cls-16 {
        fill: url(#linear-gradient-5);
      }

      .cls-17 {
        fill: url(#linear-gradient-31);
      }

      .cls-18 {
        fill: url(#linear-gradient-34);
      }

      .cls-19 {
        fill: url(#linear-gradient-41);
      }

      .cls-20 {
        fill: url(#linear-gradient-40);
      }

      .cls-21 {
        fill: url(#linear-gradient-13);
      }

      .cls-22 {
        fill: url(#linear-gradient-23);
      }

      .cls-23 {
        fill: url(#linear-gradient-25);
      }

      .cls-24 {
        fill: url(#linear-gradient-43);
      }

      .cls-25 {
        fill: url(#linear-gradient-16);
      }

      .cls-26 {
        fill: url(#linear-gradient-22);
      }

      .cls-27 {
        fill: url(#linear-gradient-35);
      }

      .cls-28 {
        fill: url(#linear-gradient-32);
      }

      .cls-29 {
        fill: url(#linear-gradient-20);
      }

      .cls-30 {
        fill: url(#linear-gradient);
      }

      .cls-31 {
        fill: url(#linear-gradient-14);
      }

      .cls-32 {
        fill: url(#linear-gradient-47);
      }

      .cls-33 {
        fill: url(#linear-gradient-2);
      }

      .cls-53 {
        stroke: #fff8eb;
      }

      .cls-53, .cls-52 {
        fill: none;
        stroke-miterlimit: 10;
        stroke-width: .2px;
      }

      .cls-34 {
        fill: url(#linear-gradient-7);
      }

      .cls-35 {
        fill: url(#linear-gradient-39);
      }

      .cls-37 {
        fill: url(#linear-gradient-3);
      }

      .cls-38 {
        fill: url(#linear-gradient-9);
      }

      .cls-39 {
        fill: url(#linear-gradient-27);
      }

      .cls-40 {
        fill: url(#linear-gradient-36);
      }

      .cls-41 {
        fill: url(#linear-gradient-8);
      }

      .cls-42 {
        fill: url(#linear-gradient-24);
      }

      .cls-43 {
        fill: url(#linear-gradient-26);
      }

      .cls-44 {
        fill: url(#linear-gradient-18);
      }

      .cls-52 {
        stroke: #df7c09;
      }

      .cls-45 {
        fill: url(#linear-gradient-30);
      }

      .cls-46 {
        fill: url(#linear-gradient-44);
      }

      .cls-47 {
        fill: url(#linear-gradient-29);
      }

      .cls-48 {
        fill: url(#linear-gradient-28);
      }

      .cls-49 {
        fill: url(#linear-gradient-10);
      }

      .cls-50 {
        fill: url(#linear-gradient-4);
      }

      .cls-51 {
        fill: url(#linear-gradient-37);
      }
    </style>
    <linearGradient id="linear-gradient" x1="32" y1="60.4" x2="32" y2="49.1" gradientUnits="userSpaceOnUse">
      <stop offset="0" stop-color="#f8a02d"/>
      <stop offset="1" stop-color="#fb4919"/>
    </linearGradient>
    <linearGradient id="linear-gradient-2" x1="30.9" y1="3.8" x2="33.6" y2="37.4" gradientUnits="userSpaceOnUse">
      <stop offset="0" stop-color="#fff"/>
      <stop offset=".3" stop-color="#eee"/>
      <stop offset=".9" stop-color="#c4c4c4"/>
      <stop offset="1" stop-color="#bebebe"/>
    </linearGradient>
    <linearGradient id="linear-gradient-3" x1="31" y1="3.8" x2="33.7" y2="37.4" xlink:href="#linear-gradient-2"/>
    <linearGradient id="linear-gradient-4" x1="45.5" y1="2.6" x2="48.2" y2="36.2" xlink:href="#linear-gradient-2"/>
    <linearGradient id="linear-gradient-5" x1="30.9" y1="3.8" x2="33.6" y2="37.4" xlink:href="#linear-gradient-2"/>
    <linearGradient id="linear-gradient-6" x1="31.4" y1="2.8" x2="30.7" y2="11.7" gradientUnits="userSpaceOnUse">
      <stop offset="0" stop-color="#d73c2c"/>
      <stop offset="1" stop-color="#a70c00"/>
    </linearGradient>
    <linearGradient id="linear-gradient-7" x1="25.8" y1="4.2" x2="28.6" y2="37.8" xlink:href="#linear-gradient-2"/>
    <linearGradient id="linear-gradient-8" x1="26" y1="4.2" x2="28.8" y2="37.8" xlink:href="#linear-gradient-2"/>
    <linearGradient id="linear-gradient-9" x1="26.2" y1="4.2" x2="29" y2="37.8" xlink:href="#linear-gradient-2"/>
    <linearGradient id="linear-gradient-10" x1="34.5" y1="3.5" x2="37.3" y2="37.1" xlink:href="#linear-gradient-2"/>
    <linearGradient id="linear-gradient-11" x1="19.4" y1="4.7" x2="22.1" y2="38.4" xlink:href="#linear-gradient-2"/>
    <linearGradient id="linear-gradient-12" x1="9.9" y1="5.5" x2="12.7" y2="39.1" xlink:href="#linear-gradient-2"/>
    <linearGradient id="linear-gradient-13" x1="7" y1="5.7" x2="9.7" y2="39.4" xlink:href="#linear-gradient-2"/>
    <linearGradient id="linear-gradient-14" x1="19.7" y1="4.7" x2="22.4" y2="38.3" xlink:href="#linear-gradient-2"/>
    <linearGradient id="linear-gradient-15" x1="10.9" y1="5.4" x2="13.6" y2="39.1" xlink:href="#linear-gradient-2"/>
    <linearGradient id="linear-gradient-16" x1="53.2" y1="2" x2="56" y2="35.6" xlink:href="#linear-gradient-2"/>
    <linearGradient id="linear-gradient-17" x1="54" y1="1.9" x2="56.8" y2="35.5" xlink:href="#linear-gradient-2"/>
    <linearGradient id="linear-gradient-18" x1="43.5" y1="2.8" x2="46.3" y2="36.4" xlink:href="#linear-gradient-2"/>
    <linearGradient id="linear-gradient-19" x1="50.3" y1="2.2" x2="53" y2="35.8" xlink:href="#linear-gradient-2"/>
    <linearGradient id="linear-gradient-20" x1="45.8" y1="2.6" x2="48.5" y2="36.2" xlink:href="#linear-gradient-2"/>
    <linearGradient id="linear-gradient-21" x1="30" y1="18.3" x2="30" y2="24.1" xlink:href="#linear-gradient-6"/>
    <linearGradient id="linear-gradient-22" x1="28.5" y1="4" x2="31.2" y2="37.6" xlink:href="#linear-gradient-2"/>
    <linearGradient id="linear-gradient-23" x1="27.7" y1="22.4" x2="32.3" y2="11.3" xlink:href="#linear-gradient"/>
    <linearGradient id="linear-gradient-24" x1="31.7" y1="3.7" x2="34.5" y2="37.4" xlink:href="#linear-gradient-2"/>
    <linearGradient id="linear-gradient-25" x1="31" y1="3.8" x2="33.8" y2="37.4" xlink:href="#linear-gradient-2"/>
    <linearGradient id="linear-gradient-26" x1="31" y1="3.8" x2="33.8" y2="37.4" xlink:href="#linear-gradient-2"/>
    <linearGradient id="linear-gradient-27" x1="17.3" y1="4.9" x2="20.1" y2="38.5" xlink:href="#linear-gradient-2"/>
    <linearGradient id="linear-gradient-28" x1="14.8" y1="5.1" x2="17.6" y2="38.7" xlink:href="#linear-gradient-2"/>
    <linearGradient id="linear-gradient-29" x1="16.1" y1="5" x2="18.8" y2="38.6" xlink:href="#linear-gradient-2"/>
    <linearGradient id="linear-gradient-30" x1="46.4" y1="2.5" x2="49.1" y2="36.2" xlink:href="#linear-gradient-2"/>
    <linearGradient id="linear-gradient-31" x1="57.9" y1="50.4" x2="49.8" y2="48.5" xlink:href="#linear-gradient"/>
    <linearGradient id="linear-gradient-32" x1="6.5" y1="50.4" x2="13.9" y2="48.3" xlink:href="#linear-gradient"/>
    <linearGradient id="linear-gradient-33" x1="32" y1="47.4" x2="32" y2="55.1" xlink:href="#linear-gradient"/>
    <linearGradient id="linear-gradient-34" x1="32" y1="55" x2="32" y2="47.5" xlink:href="#linear-gradient"/>
    <linearGradient id="linear-gradient-35" x1="8.9" y1="35.3" x2="8.9" y2="45.3" xlink:href="#linear-gradient-2"/>
    <linearGradient id="linear-gradient-36" x1="14.5" y1="35.3" x2="14.5" y2="45.3" xlink:href="#linear-gradient-2"/>
    <linearGradient id="linear-gradient-37" x1="18.9" y1="35.3" x2="18.9" y2="45.3" xlink:href="#linear-gradient-2"/>
    <linearGradient id="linear-gradient-38" x1="23.3" y1="35.3" x2="23.3" y2="45.3" xlink:href="#linear-gradient-2"/>
    <linearGradient id="linear-gradient-39" x1="28.9" y1="35.3" x2="28.9" y2="45.3" xlink:href="#linear-gradient-2"/>
    <linearGradient id="linear-gradient-40" x1="34.6" y1="35.3" x2="34.6" y2="45.3" xlink:href="#linear-gradient-2"/>
    <linearGradient id="linear-gradient-41" x1="38.7" y1="35.3" x2="38.7" y2="45.3" xlink:href="#linear-gradient-2"/>
    <linearGradient id="linear-gradient-42" x1="43.4" y1="35.3" x2="43.4" y2="45.3" xlink:href="#linear-gradient-2"/>
    <linearGradient id="linear-gradient-43" x1="48.9" y1="35.3" x2="48.9" y2="45.3" xlink:href="#linear-gradient-2"/>
    <linearGradient id="linear-gradient-44" x1="54.9" y1="35.3" x2="54.9" y2="45.3" xlink:href="#linear-gradient-2"/>
    <linearGradient id="linear-gradient-45" x1="19.2" y1="60.4" x2="19.2" y2="49.1" xlink:href="#linear-gradient"/>
    <linearGradient id="linear-gradient-46" x1="44.8" y1="60.4" x2="44.8" y2="49.1" xlink:href="#linear-gradient"/>
    <linearGradient id="linear-gradient-47" x1="32" y1="47.5" x2="32" y2="58.2" xlink:href="#linear-gradient"/>
  </defs>
  <path class="cls-7" d="M58.9,32.2h-5.2c.5-.9,1-1.9,1.4-3,.1,0,.3,0,.5.1h0c0,0,.1,0,.2,0,.5,0,.9-.2,1.2-.5.8-.8,1.1-3.3,1.3-4.7,0,0,.2,0,.2-.1.3-.2.5-.4.6-.7h.2s0-.9,0-.9c0-.1,0-.3,0-.4h0c-.2-3.4-.5-6.5-1.9-9.8-1.2-2.9-2.9-4.9-3.8-6.1h0c-.4-.6-.8-1.1-1.6-1.5-1.2-1.6-2.8-2.6-4.8-2.9-.2,0-.5-.1-.7-.1h0s-.2,0-.2,0c-.2,0-.5,0-.7,0-.7,0-1.2.2-1.7.5-1,.8-1.1,2-1.1,3.1,0,1-.1,2.3-.9,3.6h0s0,.1,0,.1c0,0,0,.2-.1.3,0,0-.1,0-.2,0-.2-.6-.6-1.2-1.1-1.6-.7-.8-1.7-1.4-2.8-1.8,0-.1-.1-.3-.2-.4h0c0-1.4-.9-2.8-2.4-2.9,0,0,0,0-.1,0,0,0,0-.1,0-.2-.2-.5-.7-1.3-2-1.5h0s0,0,0,0c0,0-.2,0-.3,0-.5,0-.9,0-1.3.3-.1-.1-.2-.2-.4-.3-.4-.3-.9-.4-1.4-.4s-.4,0-.6,0h0s0,0,0,0c-.4.1-.7.3-1,.6,0,0,0,0,0,0-.4.3-.7.7-.9,1.2-.2,0-.4,0-.6.2h0s0,0,0,0c-.4.2-.7.6-.9,1-.2.5-.3,1.2,0,2-.1.3-.2.5-.3.9h0c0,.6.1,1.1.3,1.5,0,0,0,.2,0,.2-1.2.9-2.2,2.1-2.8,3.4-.3-1-.3-1.9-.3-2.6,0-1,0-2.2-.8-3-.5-.5-1.1-.7-1.9-.7s-.2,0-.3,0c0,0-.2,0-.3,0-.2,0-.4,0-.6,0-1.8.1-3.4.9-4.6,2.2-.7.3-1.1.8-1.6,1.2h0c-1,1-2.6,2.7-3.9,5.1-1.5,2.8-2,5.5-2.5,8.5h0c0,.3-.2,1.2.4,1.9-.1,2.1,0,5.6.9,6.6.3.4.7.6,1.2.6,0,0,0,0,.1,0,0,0,0,0,0,0,.4,0,.8-.1,1.1-.3.2.6.5,1.1.7,1.6h-4.9l-2.6,18.2-.2,1.4h.9l2.7,2.6h.6c1.8-.6,3.7-.9,5.5-1.3l20,10.9,20.1-11c1.4.3,2.7.6,3.6.8h0c.7.2,1.2.3,1.7.4h.6c0,.1,2.7-2.5,2.7-2.5h.9l-2.8-19.6Z"/>
  <g>
    <path class="cls-13" d="M58.5,32.7h-5.6c.8-1.3,1.5-2.7,2-4.3.2.2.4.3.8.4h0s0,0,.1,0c.3,0,.6-.1.9-.4.7-.7,1-3.1,1.1-4.7.1,0,.3-.1.4-.2.3-.2.4-.5.5-.8h0s0-.4,0-.4c0-.1,0-.2,0-.3h0c-.2-3.4-.5-6.4-1.9-9.6-1.2-2.8-2.8-4.8-3.8-6h0c-.5-.6-.8-1.1-1.6-1.4-1.1-1.6-2.7-2.5-4.6-2.8-.2,0-.4-.1-.7-.1h0s0,0,0,0c-.2,0-.4,0-.6,0-.5,0-1,.1-1.4.4-.8.6-.9,1.7-1,2.7,0,1.1-.1,2.4-1,3.8h0s0,0,0,0c0,.2-.2.4-.3.6,0,0,0,0,0,0-.2-.1-.5-.2-.8-.3-.2-.6-.6-1.2-1-1.7-.9-1-1.9-1.5-2.8-1.8,0-.2-.2-.5-.3-.7v-.3c0-1-.7-2.1-2-2.2-.1,0-.2,0-.4,0s0,0-.1,0c0-.2,0-.3-.1-.5-.1-.4-.6-1-1.6-1.2h0s0,0,0,0c0,0-.2,0-.2,0-.5,0-1,.1-1.4.4-.1-.2-.3-.4-.5-.5-.3-.2-.7-.4-1.2-.4s-.3,0-.5,0h0s0,0,0,0c-.3,0-.6.3-.8.5,0,0,0,0-.1,0-.4.3-.7.8-.8,1.2,0,0,0,0-.1,0-.2,0-.4,0-.6.1h0c-1.1.6-.9,1.9-.7,2.6-.1.2-.3.5-.3.8h0c0,.6.1,1,.3,1.4,0,.2,0,.4,0,.5-1.6,1.2-2.8,2.8-3.3,4.4,0-.2-.2-.3-.2-.5h0s0,0,0,0c-.6-1.2-.6-2.4-.5-3.4,0-.9,0-1.9-.7-2.6-.4-.4-.9-.5-1.6-.5s-.2,0-.3,0c0,0-.2,0-.3,0-.2,0-.4,0-.5,0-1.8.1-3.2.8-4.3,2.1-.7.3-1.1.7-1.5,1.1h0c-.9,1-2.5,2.6-3.8,5-1.5,2.8-2,5.4-2.4,8.4h0c0,.4-.2,1,.4,1.5,0,0,0,0,0,0-.1,2.3,0,5.6.7,6.5.2.3.5.4.8.4,0,0,0,0,0,0,0,0,0,0,0,0,.6,0,1-.3,1.2-.9.4,1.1.9,2.2,1.4,3.1h-5.3l-2.5,17.8v.8c-.1,0,.4,0,.4,0l2.7,2.6h.4c1.9-.5,3.8-.9,5.7-1.2l19.9,10.9,20-10.9c1.5.3,2.8.6,3.8.9.7.2,1.2.3,1.7.4h.4c0,0,2.7-2.5,2.7-2.5h.5l-2.6-18.6Z"/>
    <path class="cls-53" d="M32,58.5"/>
    <path class="cls-10" d="M58.1,22h-.4s.4,0,.4,0h0c-.2-3.3-.5-6.3-1.8-9.4-1.2-2.7-2.7-4.7-3.7-5.8h0c-.5-.6-.8-1-1.5-1.3-1-1.5-2.5-2.4-4.3-2.7-.1,0-.3-.1-.7-.1,0,0,0,0,0,0-.7-.1-1.2,0-1.5.2-.6.4-.6,1.2-.7,2.2,0,1.1-.2,2.6-1,4.1h0c-.1.3-.2.5-.3.7-.1.2-.2.4-.4.7-.5-.3-1.1-.5-1.6-.7-.2-.6-.5-1.3-1-1.8-1-1.1-2.2-1.5-3-1.7,0,0,0,0,0-.1,0-.4-.2-.8-.7-.9h.4s0-.5,0-.5c0-.6-.5-1.4-1.3-1.5-.4,0-.8,0-1.2.1,0-.4,0-.8,0-1.1-.1-.3-.4-.7-1-.8h0c-.5,0-1.2,0-1.8,1-.1-.5-.3-1-.7-1.2-.3-.2-.7-.3-1.1-.2h0c-.2,0-.4.2-.6.4h0c0,0-.1,0-.2,0-.4.3-.6.8-.7,1.7-.2-.2-.3-.3-.4-.3-.2,0-.4,0-.6,0h0c-.6.3-.5,1.2-.2,2.2-.2,0-.3.3-.4.7,0,.4.1.8.3,1.1,0,0,0,.1,0,.2-.2.2-.2.6-.1.9-2,1.3-3.3,3.2-3.5,5.2-.2.1-.5.3-.7.4-.1-.5-.3-.8-.4-1.2,0-.2-.2-.4-.3-.6h0c-.7-1.4-.6-2.8-.6-3.7,0-.9,0-1.6-.4-2.1-.3-.3-.7-.4-1.4-.3h0c-.3,0-.5,0-.6,0-1.7,0-3,.8-4,2-.6.2-1,.5-1.4,1h0c-.9,1-2.4,2.6-3.7,4.9-1.5,2.7-1.9,5.3-2.4,8.1h0c0,.3-.1.7.2.9,0,0,.2.1.3.1,0,0,0,0,0,0-.2,2.6,0,5.9.5,6.4,0,.1.2.2.4.2,0,0,0,0,0,0,.5,0,.7-.5,1.1-1.8,0-.2.2-.5.2-.7.6,3,1.9,5.5,3.5,7.2,0,0,.2.2.4.2,0,0,.2,0,.3,0,.2,0,.4-.3.4-.5,0-.3-.1-.7-.3-1.5-.2-1-.5-2.2-.7-3.7.5,1.1,1,2,1.4,2.5,0,.1.2.2.4.2,0,0,.2,0,.2,0,.2,0,.4-.3.4-.5,0-.3,0-.7-.1-1.3,0-.5-.2-1.2-.2-1.8.3.2.6.4,1.1.4.9,0,1.3-.6,1.6-1,0-.1.2-.3.3-.4,0,0,.3,0,.5-.1,0,0,.2,0,.3,0,.4.9.8,1.8,1.4,2.7h0c0,0,.7.6.7.6,0,0,0,0,0,0h0c0,.6,0,1.1.2,1.7,0,.2.1.5.2.8,0,.1,0,.4-.1.7-1.4-.5-2.5-.2-3,0-.2,0-.5,0-.8.1-.7.4-1.5,1.5-1.1,2.5l.8,2v-2.2c.2-.4.3-.4.7-.6.2,0,.6-.2.8-.5.8,0,1.4,0,2.1.3-.1,0-.2.2-.3.3-.4.1-.7.4-.9.7-.2.4-.2.8,0,1.2l1.1,2.2v-2.3c0,0,0,0,0,0,.2,0,.5-.2.7-.5.1,0,.2,0,.3-.1.3-.1.6-.2.8-.2h0c.3,0,.5,0,.6,0,.1,0,.2,0,.4,0,0,0,0,0,0,0,.6.1,1,.3,1.4.5,0,.1,0,.2.1.3,0,.1.1.3.1.5v2.4c0,0,1-2.2,1-2.2,0,0,0,0,0-.1,0-.1.2-.3.3-.6,0-.3-.1-.6-.3-.9,0,0-.2-.2-.3-.2-.4-.5-1-1-1.6-1.2.1-.1.2-.3.3-.4.1-.1.1-.2.2-.2,0,0,.1,0,.2-.1.2-.1.5-.3.9-.6,1.1.4,2.5.6,3.2.7.4,0,.6,0,.6,0,1.3.1,3.2,0,5.2-.3.3.5.6.7.9.9,0,.1.1.2.2.3-1.1.1-2,.5-2.6,1.2-.3,0-.6.2-.8.5-.4.6-.6,1.8,0,2.4l1.4,1.6-.5-2c0-.3,0-.3.2-.5,0,0,.2-.2.3-.3,1-.5,1.8-.8,2.5-1,0,0,0,.1,0,.2-.4.4-.5,1.1-.3,1.7l.6,1.8.4-1.9c0-.2.1-.3.3-.4.1-.1.3-.3.3-.5.3-.2.5-.5.6-.7.3-.3.5-.6.9-.7.4-.2.8-.2,1.1-.2.3,0,.7,0,1,0,.1,0,.2,0,.3,0,.2.1.4.1.6.2h0c0,0,.2.2.4.2l1.4.4-.9-1.1s0,0,0,0c0-.2-.1-.6-.6-.8-.2,0-.4,0-.6,0-.9-.4-1.9-.5-2.6-.4,0-.2,0-.5,0-.7.1-.3.3-.7.5-1.3.5-.2,1-.4,1.4-.6,2-1,3.7-2.6,4.8-4.6.3.5.7,1,1.5,1,.5,0,.9-.2,1.3-.4,0,.7-.3,1.5-.5,2.1-.2.7-.3,1.1-.3,1.4,0,.3.1.5.4.6,0,0,.1,0,.2,0,.2,0,.4,0,.5-.2.6-.7,1.3-1.8,2-3.1-.4,1.9-.9,3.5-1.3,4.6-.3.8-.4,1.3-.5,1.7,0,.2,0,.5.3.6,0,0,.1,0,.2,0,.2,0,.3,0,.4-.1,2.3-2,4.1-5.2,5-9.1,0,0,0,.2,0,.3.3,1.2.4,1.7.9,1.7h0c.2,0,.3,0,.4-.2.4-.4.9-2.8,1-5,0,0,0,0,0,0h0c0,0,.1,0,.2,0,.1,0,.3,0,.4-.1.3-.2.3-.6.2-.9ZM17.9,33.9c-.1.2-.3.2-.5.3-.1,0-.2,0-.4.1.2-.3.4-.5.6-.6,0,0,.2,0,.2,0s0,0,0,0h.1c0,0,0,.2,0,.2ZM25.5,36.5c0,0,0-.1,0-.2,0,0,0,0,0-.1,0,0,.1.2.1.3ZM20.5,35.8c0,0-.2.2-.4.2,0,0-.1,0-.2,0,.1-.2.3-.4.5-.4h.1s0,0,0,0ZM36.5,37.1c0,.1-.1.2-.2.3,0,0,0,0,0,0,0-.1.1-.2.2-.3h0s0,0,0,0Z"/>
    <polygon class="cls-30" points="32 59.5 37.9 56.2 37.9 57.2 32 60.5 26.1 57.2 26.1 56.2 32 59.5"/>
    <path class="cls-36" d="M26.1,56.2v-.5s-.1.4-.1.4l-.2.9.3.2v-1ZM38.1,56.1v-.4c0,0-.1.5-.1.5v1c0,0,0,0,0,0l.3-.2-.2-.9Z"/>
    <path class="cls-10" d="M18.6,26.4l2.4,3.5v2.5c.1,0,0,1.1-.1,1s-7.3.7-7.3.7l-.9-5.9,1.9,3v-3.7c.1,0,1.1.4,1.1.4l1.4-.8,1.5-.8Z"/>
    <polygon class="cls-10" points="48.5 27.4 48 30 47.9 31.5 50.9 27.6 49.6 33.7 40.4 33.7 38.5 33.7 39.1 32.3 42.5 30.2 45.5 26.7 48.5 27.4"/>
    <g>
      <path class="cls-33" d="M57.4,22.5c0,0-.3-.8-.9-2,.5,2.7-.4,7.1-.8,7-.3,0-.4-1.7-1-3.7-.7,4.5-2.5,8.6-5.3,11,0,0-.1,0-.1,0,0-.4.5-1.7,1-3.4,0-.3,1.4-5.5,1.3-5.9s-1.5,3-1.9,3.5c-.5,1-1.1,1.8-1.6,2.3,0,0-.2,0-.2,0,0-.7.9-3.2.8-4.6,0,0,0,0,0,0-.5.4-1,1-1.8,1-.9,0-1.1-1.1-1.5-1.6-1.1,2.2-2.8,4.1-5,5.2-.5.3-1,.5-1.6.7-.2.6-.4,1.1-.6,1.5-.1.8,0,1.4-.2,1.9,0,0,0-.2,0-.3.5-.4,1.8-.4,3.1.1.2,0,.4,0,.5,0,.3.1.2.5.4.6-.2,0-.3-.3-.5-.3-.3,0-.4,0-.5-.2-.1,0-.7-.1-1.5,0-.5,0-.9.2-1.2.3-.9.4-1,1-1.8,1.6-.1.4-.5.5-.7,1.1-.2-.5,0-1.1.3-1.3,0-.3.2-.5.3-.7.1-.3.2-.6,0-.5-.6.2-1.9.7-3.4,1.4-.2.4-.8.5-.6,1.3-.5-.6,0-2.3.7-2,.6-.8,1.7-1.3,3.2-1.3.1,0-.3-.7-.6-1.2-.3,0-.7-.4-1-1-2,.4-4,.5-5.4.4,0,0-2.4,0-4-.8-.6.7-1.2.7-1.4,1,0,0-.8,1-.9,1.3,0,0,.1-.1.2-.1.6.1,1.6.6,2,1.3.2,0,.4.4.4.6,0,.3-.2.4-.3.6,0-.6-.4-.8-.3-1-.4-.3-.9-.6-1.8-.8,0,0,0,0-.1,0-.5,0-.6.1-1,0-.5,0-.9.2-1.5.4-.1.5-1.1.3-1.1.9-.3-.5.3-1.2.8-1.2,0,0,.6-.8,1.4-.8-1.2-.3-2.2-.8-3.8-.7-.3.7-1.5.3-1.6,1.5-.4-.9,1.1-2.3,1.4-1.8,0,0,1.4-.8,3.4.1.1-.5.3-1,.3-1.4-.2-.9-.4-1.6-.3-2.3,0-.1,0-.2,0-.4l-.8-.6c-.6-.9-1.1-1.9-1.5-3-.5.1-1,.2-1.3.3-.5.3-.7,1.4-1.6,1.4-.7,0-1.1-.6-1.5-1,0,0,0,0,0,0-.2,1.2.4,3.5.4,4.1,0,0-.1.1-.2,0-.9-1.1-2-3.8-2.6-6.2h0c0,4.6,1.3,8.5,1.3,9.2,0,0,0,.1-.1,0-2-2.1-3.2-5.3-3.7-8.8-.8,2.1-1.2,4-1.5,4-.3,0-1-5.1-.1-8-.4.8-.7,1.4-.7,1.4-.2,0-.1-.2,0-.5.4-2.5.8-5.3,2.3-8,1.2-2.2,2.6-3.7,3.6-4.7.5-.5.7-.8,1.4-.9.9-1.1,2.1-1.9,3.8-2,0,0,.2,0,.5,0,0,0,0,0,0,0,0,0,0,0,0,0h0c2.5-.3.4,2.5,1.9,5.8.3.8.7,1.4.8,2.5.5-.4,1-.8,1.5-1h0c.1-1.8,1.4-4,3.7-5.3-.3-.4-.2-1.1.1-.7,0-.6-.5-1.1-.5-1.6,0-.6.5-.3.7,0-.3-.7-.8-2.3-.3-2.5.4-.2,1,1.5,1.2,2.2,0-2.2,0-4.1,1.1-3.6,1.4.8,1,3.3.5,5.3.7-2,1.1-5.1-.8-5.5,0-.1.2-.2.3-.2,1.4-.3,1.3,1.7,1.6,2.9.2-1.2.6-2.6,1.9-2.5,1.5.3.3,2.4-.2,3,.8-1,1.7-1.3,2.4-1.2.6,0,.9.6.9.9-.6,0-1.2,1.3-1.3,1.9.3-1.3,1.7-1.1,1.6-.5s-.2.4-.4.5c1.1.1,2.6.7,3.5,1.7.5.5.8,1.2,1,1.9h0c.8.2,1.6.6,2.3,1,.3-.7.6-1.2.9-1.9,2.1-3.6,0-6.9,2.8-6.3h0s0,0,0,0c0,0,0,0,0,0,.4,0,.5,0,.6,0,1.9.3,3.2,1.2,4.1,2.6.7.3.9.6,1.4,1.2,1.1,1.3,2.5,3.1,3.6,5.7,1.4,3.2,1.6,6.3,1.8,9.2,0,.3,0,.6-.2.5Z"/>
      <g>
        <path class="cls-37" d="M40,10.4c3,.7,5.1,3.6,6,6.2,1.7,6-.6,11.9-5.6,14.5-3,1.6-8.3,2.4-11.1,2.2,0,0-2.8-.1-4.3-1l-4.6-3.2c-2.3-3.5-3.1-7.7-1.1-11.4.9-1.7,2.1-3.1,3.7-3.9"/>
        <path class="cls-10" d="M28.7,33.4c-.9,0-2.6-.3-3.7-.9l-4.7-3.3h0c-2.6-3.9-3-8.1-1.1-11.6,1.1-2,2.3-3.2,3.8-4,0,0,.2,0,.2,0,0,0,0,.2,0,.2-1.4.7-2.6,2-3.7,3.9-1.8,3.4-1.4,7.5,1.1,11.2l4.6,3.2c1.4.8,4.2.9,4.2.9,2.8.3,8.2-.6,11-2.2,5-2.5,7.3-8.4,5.6-14.3-.9-2.5-2.9-5.4-5.9-6.1,0,0-.1,0-.1-.2,0,0,0-.1.2-.1,3.1.8,5.2,3.8,6.1,6.3,1.7,6-.6,12.1-5.7,14.7-2.9,1.6-8.3,2.5-11.2,2.2,0,0-.3,0-.6,0Z"/>
      </g>
      <path class="cls-50" d="M46.7,26.2l-1.4-.7-.7-3.6.6-6.7s3.7-1.3,3.8-.3-2.3,11.1-2.3,11.1Z"/>
      <path class="cls-10" d="M23.4,15.5"/>
      <g>
        <path class="cls-16" d="M23.4,15.5c-1-1.9.2-5.3,3.3-7.1h4s4.4-1.6,4.4-1.6h.3c1.1,0,2.6.6,3.5,1.7.5.5.8,1.2,1,1.9s0,2-.9,2.9"/>
        <path class="cls-10" d="M23.4,15.7s0,0-.1,0c-1-1.9,0-5.4,3.4-7.3h0s4.1,0,4.1,0l4.4-1.6h.3c0,0,0,0,0,0,1.1.1,2.6.7,3.6,1.8.5.6.9,1.2,1,1.9.1.8.1,1.9-.9,3,0,0-.1,0-.2,0,0,0,0-.1,0-.2.9-1,1-2.1.8-2.8-.1-.6-.4-1.3-.9-1.8-1-1.1-2.4-1.6-3.4-1.7h-.3s-4.5,1.7-4.5,1.7h-4c-3.1,1.8-4.2,5.1-3.2,6.9,0,0,0,.2,0,.2,0,0,0,0,0,0Z"/>
      </g>
      <g>
        <path class="cls-9" d="M28.7,2c0-.1.2-.2.3-.2,1.4-.3,1.3,1.7,1.6,2.9.2-1.2.6-2.6,1.9-2.5,1.5.3.3,2.4-.2,3,.8-1,1.7-1.3,2.4-1.2.6,0,.9.6.9.9-.6,0-1.2,1.3-1.3,1.9.3-1.3,1.7-1.1,1.6-.5,0,1-3.1,1-5.2,3.6-.2.2-1,1.4-1.6,1.7-.1,0-.2,0-.2,0,0,0-.1,0-.2,0-.7-1.9-1.7-2.6-2-3-.3-.4-.2-1.1.1-.7,0-.6-.5-1.1-.5-1.6,0-.6.5-.3.7,0-.3-.7-.8-2.3-.3-2.5.4-.2,1,1.5,1.2,2.2,0-2.2,0-4.1,1.1-3.6,1.4.8,1,3.3.5,5.3.7-2,1.1-5.1-.8-5.5Z"/>
        <path class="cls-10" d="M29.1,11.7s0,0-.1,0c-.1,0-.2,0-.3-.1h0c-.5-1.5-1.2-2.2-1.7-2.6-.1-.1-.2-.2-.3-.3-.2-.3-.3-.8,0-1,0,0,0,0,0,0,0-.2-.1-.3-.2-.5-.1-.3-.3-.6-.2-.9,0-.3.1-.4.3-.5,0,0,.1,0,.2,0-.4-1.3-.5-2,0-2.2,0,0,.1,0,.3,0,.3.1.6.8.8,1.4,0-1.6.2-2.5.6-2.8,0,0,.1,0,.2,0h0c.1-.2.3-.3.4-.4.3,0,.6,0,.8.1.5.4.6,1.2.8,2,0,0,0,.1,0,.2.3-1.3,1-2,1.9-1.9.4,0,.7.3.8.6.2.5,0,1.1-.3,1.7.7-.5,1.3-.5,1.8-.5h0c.6,0,1.1.6,1,1.1h0c0,.1-.1.1-.1.1-.3,0-.6.4-.8.8.2-.1.5-.2.7-.1.4,0,.6.3.6.6,0,.5-.7.8-1.5,1.1-1.1.4-2.5,1-3.7,2.5,0,0,0,0-.1.2-.3.4-.9,1.2-1.5,1.5,0,0-.1,0-.2,0ZM29,11.3s0,0,0,0c0,0,0,0,0,0,0,0,0,0,0,0h0c.5-.3,1.1-1.1,1.4-1.5,0,0,.1-.2.1-.2,1.2-1.5,2.7-2.1,3.8-2.6.8-.3,1.3-.5,1.3-.9s-.2-.3-.3-.3c-.3,0-.9.1-1,.8h-.3c0-.6.6-1.9,1.3-2.1,0-.3-.3-.6-.8-.7,0,0,0,0,0,0-.6,0-1.5.1-2.3,1.2l-.2-.2c.4-.6,1-1.7.8-2.4,0-.2-.3-.3-.5-.4-1.2-.1-1.5,1.4-1.7,2.4v.7c-.1,0-.3-.7-.3-.7,0-.3-.1-.6-.2-.9-.1-.8-.3-1.5-.7-1.8-.2-.1-.4-.1-.6,0,0,0,0,0,0,0,.4.1.6.4.8.7.7,1.2.4,3.3-.2,4.9h-.3c.5-2.2.9-4.5-.4-5.2-.2,0-.3,0-.4,0-.4.3-.6,1.4-.5,3.5v1.2c0,0-.3-1.1-.3-1.1-.3-1-.8-2.1-1-2.1s0,0,0,0c-.1,0-.3.4.4,2.3l.4,1.1-.7-1c-.1-.2-.3-.3-.4-.3,0,0,0,0,0,.2,0,.2,0,.5.2.8.1.3.2.5.3.8v.5s-.3-.3-.3-.3c0,0,0,0,0,0,0,.1,0,.4.1.6,0,0,.2.2.3.3.4.4,1.2,1.2,1.8,2.7,0,0,0,0,0,0Z"/>
      </g>
      <g>
        <path class="cls-34" d="M25.5,14c-1.9,2.9-1.6,5.1,1.2,5.3h1.8c0-.1.8-2.9.8-2.9,0-.5,0-1.1-.1-1.6"/>
        <path class="cls-10" d="M25.5,14c-1.2,2-2,4.9,1.2,5.2.5,0,1.2,0,1.7-.1,0,0-.1,0-.1,0,.3-.9.5-1.8.8-2.7,0-.5,0-1.1,0-1.6.2.5.2,1.1.2,1.6-.2.9-.5,1.9-.7,2.8h0c0,0,0,0,0,0-.6,0-1.2,0-1.8.1-3.5-.3-2.8-3.4-1.2-5.5h0Z"/>
      </g>
      <g>
        <path class="cls-41" d="M26.2,14.4c-.7,1.1-.5,2.6.4,2.7.8,0,1.5-.9,1.4-2.2"/>
        <path class="cls-10" d="M26.2,14.4c-.3.7-.4,1.5-.1,2.1,0,.2.3.4.5.4.2,0,.4,0,.6-.1.6-.4.8-1.2.9-1.9.1.8,0,1.7-.7,2.2-.5.4-1.2.2-1.5-.4-.3-.7-.1-1.6.3-2.3h0Z"/>
      </g>
      <g>
        <path class="cls-38" d="M27.8,15c0,.3-.6,1-.9.9-.3,0-.5-.7-.3-1.3,0,0,.6.2,1.3.4Z"/>
        <path class="cls-10" d="M27.8,15c0,.4-.5,1-1,1.1-.2,0-.3-.2-.4-.3-.2-.4-.2-.9,0-1.3.4.2,1,.4,1.4.5h0ZM27.8,15c-.5,0-.9-.1-1.3-.2,0,0,.2,0,.2,0,0,.4,0,1,.2,1.1.2,0,.4-.2.5-.3.2-.2.3-.3.4-.5h0Z"/>
      </g>
      <path class="cls-10" d="M31.6,13.6c0,0-.1,0-.2,0-.2,0-.3-.3-.3-.6,0-.4.5-.9.9-1.1h.1c0,0,0,0,0,0,.4-.5.7-.5.7-.5h.2s0,0,0,0c.6-.4.8-.4.8-.4h0s0,0,0,0c0,0,0,.1,0,.2.4-.1.8,0,.8,0h.1s0,0,0,0c.3,0,.4,0,.4,0h.1s0,.1,0,.1c0,0-.3.2-.6.3-.2,0-.4.2-.6.3,0,0-.1,0-.2.2-.1,0-.3.2-.4.3h0s0,0,0,0c0,0-.1,0-.1-.1,0,0,0,0,0,0,0,0-.2.2-.2.3h0s0,0,0,0c0,0-.1,0-.2-.1,0,0,0,0,0,0-.1.2-.2.4-.2.4h0s0,0,0,0c-.1,0-.2,0-.2,0,0,0,0,0,0-.1,0,.2-.1.3-.1.4h0c0,0,0,0,0,0,0,0-.1,0-.2,0,0,.1,0,.2.1.3h0c0,0,0,.1,0,.1,0,0-.1,0-.2,0ZM31.9,12c-.3.2-.7.6-.7.9,0,.2.1.4.3.5,0,0,0,0,.1,0-.1-.2-.2-.5,0-.8h.1c0,.2,0,.3,0,.4,0,0,0,0,0,0,0-.2.2-.5.4-.8l.2-.4h0s0-.2.2-.3c-.1,0-.3.2-.5.5l-.2.2v-.3ZM32.4,12v.2c-.2.3-.2.4-.2.5,0,0,0,0,0,0,0-.1.3-.5.5-.6l.3-.3-.2.3s-.1.2,0,.2h0s0,0,0,0c.3-.4.6-.6.8-.7h0c-.3.4-.4.6-.4.6,0,0,0,0,0,0,.1-.1.3-.2.4-.3.1,0,.2-.2.3-.2.2-.1.4-.2.6-.3.1,0,.3-.1.4-.2-.1,0-.2,0-.4,0h-.1s0,0,0,0c0,0,0,0,0,0-.2,0-.5,0-.9.2h0c0-.2.2-.3.2-.4-.1,0-.5.2-1.2.8h-.1Z"/>
      <path class="cls-10" d="M27.4,14.5h0c0-.2,0-.3.1-.4,0,0-.1,0-.2,0h0s0,0,0,0c0-.1,0-.3-.1-.4,0,0,0,0,0,0,0,0-.1,0-.2,0h0s0,0,0,0c0-.1-.2-.3-.3-.4,0,0-.2,0-.2,0h0s0,0,0,0c0,0-.1-.2-.2-.2,0,0,0,0,0,0,0,0,0,0-.1.1h0s0,0,0,0c-.4-.4-.9-.6-1.2-.7-.2-.1-.5-.2-.6-.3h0c0,0,.1-.1.1-.1.1,0,.3,0,.4,0h0s.1,0,.1,0c.3-.1.6,0,.8,0,0-.1,0-.2,0-.2h0s0,0,0,0c.3,0,.6.3.9.5,0,0,0,0,0,0,0,0,0,0,0,0h-.1c0-.1.2-.1.2-.1.2,0,.5.2.6.3h0s.2.1.2.1c.7.4.9,1,.8,1.4,0,.3-.3.4-.6.4h-.2ZM27.6,13.2v.4c.3.3.2.6.1.8.2,0,.3-.1.4-.3,0-.3-.1-.8-.6-1.1,0,0,0,0,0,0v.2s-.1-.1-.1-.1c0,0-.2-.4-.6-.5,0,0,.1.2.2.2h0c0,.1,0,.1,0,.1l.3.4s.3.4.4.8c0,0,0,0,0,0,0,0,0-.2,0-.4v-.4ZM26.4,13l.2.2s.3.3.5.6c0,0,0,0,0,0,0,0,0-.1,0-.4l-.2-.5h0c-.1,0-.3-.1-.4-.3-.2-.2-.5-.4-.7-.4,0,0,0,.1.2.2l.5.5-.6-.4s-.4-.2-.8-.1c0,0,0,0,0,0h0c0,0,0,0,0,0,0,0-.3,0-.4,0,.1,0,.3.1.5.2.3.1.7.3,1.2.7,0,0,0,0,0,0,0,0-.3-.4-.4-.5h0c0,0,.5.3.8.6,0,0,0,0,0,0,0,0,0-.1,0-.2v-.3Z"/>
      <g>
        <path class="cls-49" d="M39.2,29c.1,1.6-.4,3.3-.9,4.3-.1.8,0,1.4-.2,1.9,0,0,0-.2,0-.3.5-.4,1.8-.4,3.1.1.2,0,.4,0,.5,0,.3.1.2.5.4.6-.2,0-.3-.3-.5-.3-.3,0-.4,0-.5-.2-.1,0-.7-.1-1.5,0s-.9.2-1.2.3c-.9.4-1,1-1.8,1.6-.1.4-.5.5-.7,1.1-.2-.5,0-1.1.3-1.3,0-.3.2-.5.3-.7.1-.3.2-.6,0-.5-.6.2-1.9.7-3.4,1.4-.2.4-.8.5-.6,1.3-.5-.6,0-2.3.7-2,.6-.8,1.7-1.3,3.2-1.3.1,0-.3-.7-.6-1.2-.7-.1-1.9-2.3-2.4-4"/>
        <path class="cls-10" d="M32.8,39l-.4-.4c-.4-.4-.3-1.4,0-1.9.2-.2.4-.4.6-.3.6-.8,1.7-1.2,3.1-1.3,0-.1-.2-.3-.2-.4,0-.2-.2-.3-.3-.5-.8-.2-2-2.5-2.4-4.1,0,0,0-.2,0-.2,0,0,.2,0,.2,0,.5,1.7,1.6,3.8,2.3,3.9h0s0,0,0,0c0,.2.2.4.3.6.3.5.4.7.2.8h0s0,0,0,0c-1.4,0-2.5.4-3.1,1.2h0c0,0-.1,0-.1,0-.1,0-.3,0-.4.2-.2.2-.3.6-.3.9,0-.1.2-.3.3-.4.1,0,.2-.2.3-.3h0s0,0,0,0c1.1-.5,2.1-.9,2.8-1.2.3,0,.5-.2.7-.3h0c.1,0,.2,0,.3,0,0,0,.1.2,0,.7,0,0,0,.1,0,.2,0,.2-.2.3-.2.5h0c0,0,0,0,0,0-.1,0-.3.3-.3.6,0,0,.1-.2.2-.2.1-.1.2-.2.2-.4h0s0,0,0,0c.3-.2.5-.5.7-.7.3-.4.6-.7,1.1-.9.5-.2.9-.3,1.3-.3.4,0,.8,0,1.1,0,0,0,.2,0,.2,0-1.2-.5-2.3-.4-2.7-.1,0,.1,0,.2,0,.2h-.3c0-.3,0-.6,0-.9,0-.3,0-.6,0-1h0s0,0,0,0c.2-.5,1-2.3.9-4.2,0,0,0-.1.1-.2,0,0,.1,0,.2.1.2,2-.6,3.8-.9,4.4,0,.4,0,.7,0,1,0,.1,0,.2,0,.4.6-.3,1.8-.2,2.9.2.2,0,.4,0,.6,0,.3,0,.3.3.4.5,0,0,0,.1,0,.2l.3.3h-.4c-.1-.2-.2-.2-.3-.3,0,0,0,0-.2,0-.3,0-.4,0-.6-.2,0,0-.2,0-.4,0-.3,0-.6,0-1,0-.4,0-.8.1-1.2.3-.5.2-.8.5-1,.9-.2.2-.4.5-.7.7,0,.2-.2.3-.3.4-.1.2-.3.3-.3.6v.5c-.1,0-.3-.5-.3-.5-.2-.5,0-1.1.3-1.4,0-.2.1-.4.2-.5,0,0,0-.1,0-.2,0-.2,0-.3,0-.3-.2,0-.4.1-.6.2-.7.3-1.6.6-2.7,1.1,0,.1-.2.2-.3.3-.2.2-.4.4-.3.9v.6ZM41.7,35.4c0,0,.1,0,.2,0,0,0,0-.1-.1-.2-.1,0-.3,0-.4,0,0,0,.1,0,.4,0,0,0,0,0,0,0Z"/>
      </g>
      <g>
        <path class="cls-15" d="M26.9,30.9c-.3.6-.9,1-1.4,1.6-.6.8-1.2.8-1.4,1.1,0,0-.8,1-.9,1.3,0,0,.1-.1.2-.1.6.1,1.6.6,2,1.3.2,0,.4.4.4.6,0,.3-.2.4-.3.6,0-.6-.4-.8-.3-1-.4-.3-.9-.6-1.8-.8s0,0-.1,0c-.5,0-.6.1-1,0-.5,0-.9.2-1.5.4-.1.5-1.1.3-1.1.9-.3-.5.3-1.2.8-1.2,0,0,.6-.8,1.4-.8-1.2-.3-2.2-.8-3.8-.7-.3.7-1.5.3-1.6,1.5-.4-.9,1.1-2.3,1.4-1.8,0,0,1.4-.8,3.4.1.1-.5.3-1,.3-1.4-.2-.9-.4-1.6-.3-2.3,0-.4-.3-1.3-.2-2.5"/>
        <path class="cls-10" d="M19.8,37.4l-.3-.6c-.1-.3-.1-.5,0-.8.2-.3.5-.5.8-.6.1-.1.4-.5.9-.7-.1,0-.3,0-.4-.1-.8-.3-1.6-.5-2.7-.4-.2.3-.5.4-.7.5-.4.1-.7.2-.8.9v.6s-.3-.6-.3-.6c-.3-.7.4-1.7,1-2,.3-.2.5-.1.6,0,.3-.2,1.6-.6,3.2,0,0,0,0-.2,0-.3,0-.3.2-.7.1-.9,0-.3-.1-.5-.2-.8-.1-.6-.2-1.1-.2-1.6,0-.2,0-.4,0-.7,0-.5-.2-1.1-.1-1.8,0,0,0-.1.2-.1,0,0,.1,0,.1.2,0,.7,0,1.3.1,1.7,0,.3.1.6,0,.8,0,.4,0,.9.2,1.5,0,.3.1.5.2.8,0,.3,0,.6-.2,1,0,.1,0,.3-.1.4v.2s-.2,0-.2,0c-1.9-.9-3.2-.1-3.2-.1h-.1c0,0,0,0,0,0,0,0-.2,0-.3,0-.3.2-.6.5-.8.9.2-.2.4-.2.6-.3.3,0,.5-.2.6-.4h0c0,0,0,0,0,0,1.2-.1,2,.1,2.9.4.3,0,.6.2.9.3l.8.2h-.9c-.8.2-1.3.9-1.3.9h0c0,0,0,0,0,0-.2,0-.5.2-.6.5,0,0,0,0,0,.2.1,0,.2-.1.4-.2.2,0,.4-.2.4-.3h0c0,0,0-.1,0-.1.2,0,.3-.1.5-.2.4-.1.7-.3,1.1-.2.2,0,.3,0,.4,0,0,0,0,0,0,0l.2-.5c0-.2.5-.7.8-1.1,0,0,.1-.2.1-.2,0-.1.2-.2.4-.3.3-.1.6-.3,1-.7.2-.2.4-.4.5-.5.4-.3.7-.6.9-1,0,0,.1-.1.2,0,0,0,.1.1,0,.2-.2.4-.6.8-.9,1.1-.2.2-.4.3-.5.5-.4.5-.8.7-1,.8-.2,0-.3.2-.3.2,0,0,0,0-.1.2-.1.2-.4.5-.6.8.6.1,1.5.6,1.9,1.3,0,0,.2,0,.3.2.1.2.2.4.2.6,0,.2-.1.3-.2.5,0,0,0,.1,0,.2l-.3.6v-.7c0-.3,0-.5-.2-.6,0-.1-.1-.2-.1-.4-.4-.4-.9-.6-1.6-.7,0,0,0,0-.1,0-.2,0-.3,0-.5,0-.1,0-.3,0-.5,0-.3,0-.6.1-1,.2-.1,0-.3,0-.4.1-.1.2-.4.3-.6.4-.3.1-.4.2-.4.4v.7ZM25.3,36.1h0c0,0,0,.2,0,.3,0,0,.1.2.2.4,0,0,0-.1,0-.2,0,0,0-.2-.2-.4,0,0,0,0-.1,0ZM23.3,35.2s0,0,0,0c.7.1,1.2.3,1.6.6-.4-.5-1.2-.9-1.7-1,0,0,0,0,0,0l-.3.3c0,0,.2,0,.3,0,0,0,0,0,0,0Z"/>
      </g>
      <g>
        <path class="cls-2" d="M14.4,8.4c-.6.2-.9.4-1.4.9-1,1.1-2.4,2.6-3.6,4.7-1.5,2.7-1.9,5.4-2.3,8,0,.2,0,.5,0,.5.1,0,.9-2,2.5-4.4"/>
        <path class="cls-10" d="M7.2,22.7c0,0,0,0-.1,0-.1-.1,0-.3,0-.5h0c.4-2.9.9-5.4,2.3-8,1.2-2.3,2.7-3.8,3.6-4.8h0c.5-.5.8-.8,1.4-1,0,0,.2,0,.2,0,0,0,0,.2,0,.2-.6.2-.8.4-1.3.9h0c-.9.9-2.4,2.5-3.6,4.7-1.4,2.6-1.9,5.1-2.3,7.9h0c0,0,0,0,0,.1,0,0,.1-.2.2-.3.4-.8,1.1-2.2,2.2-3.8,0,0,.1,0,.2,0,0,0,0,.1,0,.2-1.1,1.6-1.8,3-2.2,3.7-.3.6-.3.6-.4.7,0,0,0,0-.1,0ZM7.2,22.4h0s0,0,0,0Z"/>
      </g>
      <g>
        <path class="cls-21" d="M8,21.2c-.9,3-.2,8.1.1,8,.3,0,.7-1.9,1.5-4.1"/>
        <path class="cls-10" d="M8.1,29.3s0,0-.1,0c-.4-.5-.9-5.4,0-8.1,0,0,.1-.1.2,0,0,0,.1.1,0,.2-.8,2.7-.3,7.1,0,7.8.1-.2.3-.8.5-1.3.2-.7.5-1.7.9-2.6,0,0,.1-.1.2,0,0,0,.1.1,0,.2-.4,1-.7,1.9-.9,2.6-.4,1.2-.5,1.6-.8,1.5,0,0,0,0,0,0ZM8.1,29.1h0s0,0,0,0Z"/>
      </g>
      <g>
        <path class="cls-31" d="M21.4,16.7c.5-2.6-.2-3.3-.7-4.4-1.6-3.3.5-6-1.9-5.8"/>
        <path class="cls-10" d="M21.4,16.8s0,0,0,0c0,0-.1,0-.1-.2.4-2,0-2.8-.4-3.7,0-.2-.2-.4-.3-.6-.7-1.5-.7-2.9-.6-4,0-.7,0-1.3-.2-1.6-.2-.2-.5-.2-.9-.2,0,0-.1,0-.2-.1,0,0,0-.1.1-.2.5,0,.9,0,1.1.2.4.3.4,1,.3,1.8,0,1,0,2.4.6,3.9,0,.2.2.4.3.6.4.9.8,1.8.4,3.9,0,0,0,.1-.2.1Z"/>
      </g>
      <g>
        <path class="cls-14" d="M12.1,24.7c0,4.6,1.3,8.5,1.3,9.2s0,.1-.1,0c-5.5-5.7-5.1-19.6.8-25.1"/>
        <path class="cls-10" d="M13.3,34.2c0,0,0,0-.1,0-2.6-2.7-4.1-7.5-3.9-12.7.2-5.3,1.9-10,4.8-12.6,0,0,.1,0,.2,0,0,0,0,.1,0,.2-2.8,2.6-4.5,7.2-4.7,12.4-.2,5.1,1.2,9.7,3.7,12.4,0-.3-.1-.7-.2-1.2-.4-1.7-1-4.6-1.1-7.9,0,0,0-.1.1-.1,0,0,.1,0,.1.1,0,3.2.7,6.1,1,7.8.2.7.3,1.2.3,1.4,0,0,0,.2-.1.2,0,0,0,0-.1,0ZM13.3,33.9h0s0,0,0,0Z"/>
      </g>
      <g>
        <path class="cls-25" d="M50.8,5.9c.7.3.9.6,1.4,1.2,1.1,1.3,2.5,3.1,3.6,5.7,1.4,3.2,1.6,6.3,1.8,9.2,0,.3,0,.6-.2.5-.1,0-.8-2.3-2.4-5.2"/>
        <path class="cls-10" d="M57.5,22.6s0,0,0,0c0,0-.1-.1-.4-.8-.4-.9-1-2.5-2.1-4.4,0,0,0-.2,0-.2,0,0,.2,0,.2,0,1.1,1.9,1.7,3.6,2.1,4.5,0,.2.2.4.2.5,0,0,0-.1,0-.2h0c-.2-3.3-.5-6.2-1.8-9.2-1.1-2.6-2.7-4.5-3.6-5.7h0c-.5-.6-.7-.9-1.4-1.2,0,0-.1-.1,0-.2,0,0,.1-.1.2,0,.7.3,1,.6,1.5,1.2h0c.9,1.2,2.5,3.1,3.6,5.8,1.3,3.1,1.6,6,1.8,9.2h0c0,.3,0,.5,0,.6,0,0,0,0-.2,0Z"/>
      </g>
      <g>
        <path class="cls-4" d="M56.6,20.4c.5,2.7-.4,7.2-.7,7.1-.3,0-.4-1.8-1.1-3.7"/>
        <path class="cls-10" d="M55.8,27.7c-.2,0-.3-.4-.6-1.4-.1-.7-.3-1.5-.6-2.4,0,0,0-.2,0-.2,0,0,.2,0,.2,0,.3.9.5,1.7.6,2.4.1.5.2,1,.3,1.2.3-.6,1.1-4.4.6-6.9,0,0,0-.2.1-.2,0,0,.2,0,.2.1.5,2.6-.3,6.8-.7,7.2,0,0-.1,0-.2,0,0,0,0,0,0,0Z"/>
      </g>
      <g>
        <path class="cls-44" d="M42,14.5c-.3-2.9.6-3.7,1.2-4.9,2.1-3.6,0-6.9,2.8-6.3"/>
        <path class="cls-10" d="M42,14.6c0,0-.1,0-.1-.1-.2-2.4.3-3.4.8-4.3.1-.2.2-.4.4-.7.9-1.6,1-3.2,1.1-4.3,0-.9,0-1.6.5-2,.3-.2.7-.3,1.3-.2,0,0,.1,0,.1.2,0,0,0,.1-.2.1-.5,0-.8,0-1.1.1-.3.3-.4.9-.4,1.8,0,1.2-.2,2.8-1.1,4.4-.1.2-.2.5-.4.7-.5.9-1,1.8-.8,4.1,0,0,0,.1-.1.2,0,0,0,0,0,0Z"/>
      </g>
      <g>
        <path class="cls-5" d="M51.8,24.5c-.5,5.2-2.3,9.4-2.4,10.3s0,.1.1,0c6.7-5.8,7.7-21.6,1.6-28.4"/>
        <path class="cls-10" d="M49.4,35s0,0,0,0c0,0-.1-.1-.1-.2,0-.3.2-.8.4-1.6.6-1.9,1.6-5,2-8.7,0,0,0-.1.2-.1h0c0,0,.1,0,.1.2-.4,3.7-1.4,6.8-2,8.7-.2.6-.3,1.1-.4,1.4,3.1-2.8,5.1-7.8,5.4-13.6.3-5.9-1.2-11.3-4-14.4,0,0,0-.1,0-.2,0,0,.1,0,.2,0,2.9,3.2,4.4,8.7,4.1,14.6-.3,5.9-2.5,11.1-5.7,13.9,0,0-.1,0-.2,0Z"/>
      </g>
      <g>
        <path class="cls-29" d="M52.6,20.4c.1,2.8-2.6,8.9-4.4,10.8s-.2,0-.2,0c0-.7.9-3.2.8-4.6s0,0,0,0c-.5.4-1,1-1.8,1-1,0-1.1-1.3-1.6-1.7-.8-.5-3.2,0-3.3-4.1.5,3.6,2.7,2.5,3.7,3.9"/>
        <path class="cls-10" d="M48.1,31.4s0,0,0,0c0,0-.2-.1-.2-.2,0-.3.1-.8.3-1.4.2-1,.5-2.1.5-3,0,0,0,0,0,0-.5.4-1,.8-1.7.8-.7,0-1-.6-1.3-1.1-.1-.3-.3-.5-.4-.6-.1,0-.4-.1-.6-.2-1.1-.3-2.7-.7-2.7-4h.3c.3,2.2,1.3,2.6,2.2,2.9.5.2,1.1.4,1.5.9,0,0,0,.2,0,.2,0,0-.2,0-.2,0-.3-.5-.8-.6-1.3-.8-.7-.2-1.4-.5-1.9-1.5.4,1.6,1.5,1.8,2.3,2.1.3,0,.5.1.7.2.2.2.4.4.5.7.2.5.5.9,1,.9.6,0,1-.4,1.5-.8,0,0,.1-.1.2-.2,0,0,.1,0,.2,0,0,0,.1,0,.1.2,0,.9-.3,2.2-.5,3.3-.1.5-.2,1-.3,1.2,1.8-2,4.4-7.9,4.3-10.6,0,0,0-.1.1-.2,0,0,.1,0,.2.1.1,2.7-2.6,8.9-4.4,10.9,0,0-.1,0-.2,0Z"/>
      </g>
      <g>
        <path class="cls-8" d="M31.2,19.3c.8.7,1.4,1.4,1.4,2.1,0,.7-.4,1.8-1,1.8-.4,0-.6-.3-.8-.6-.2-.4-.7-1-.9-1.7,0,.3.3.8.3,1.2-.1,1-.9,2.4-1.5,1.8-.3-.3-.4-.6-.6-.9-.4-.5-.8-.6-.8-1.1v-1s.7-1.3.7-1.3l1.2-1.4,1.3.7.7.4Z"/>
        <path class="cls-10" d="M29.1,24.2c-.1,0-.2,0-.4-.2-.2-.2-.3-.3-.4-.5,0-.1-.2-.3-.3-.4s-.2-.2-.3-.3c-.3-.2-.5-.5-.5-.9v-1s.7-1.3.7-1.3l1.3-1.5,1.4.7.7.4c1,.9,1.5,1.6,1.5,2.2,0,.6-.3,2-1.1,2h0c-.5,0-.8-.4-.9-.6,0-.2-.2-.3-.3-.5,0,0,0,0,0,0-.1.8-.6,1.8-1.1,2,0,0-.1,0-.2,0ZM27.6,20.9v1c0,.3.1.5.3.7.1.1.2.2.4.4.1.1.2.3.3.4.1.2.2.3.3.5.1.1.3.1.3,0,.4-.1.8-1,.9-1.8,0-.2,0-.3-.2-.5-.1-.3-.2-.5-.2-.8v-.6c.1,0,.3.6.3.6.1.5.4.9.6,1.2.1.2.2.3.3.5.1.2.3.4.6.5.4,0,.7-1,.8-1.7,0-.5-.4-1.2-1.4-2l-.7-.4-1.2-.6-1.1,1.3-.6,1.2Z"/>
      </g>
      <g>
        <path class="cls-26" d="M29.1,19.4c-.1,1.6-.6,2.2-.4,2.4l.9-.9,1-1.6.3-1.6-.2-.4h-.6s-.5.8-.5.8l-.4,1v.2Z"/>
        <path class="cls-10" d="M28.7,21.9h0c-.2-.2-.1-.4,0-.8.1-.4.3-.9.4-1.8v-.3s.4-1.1.4-1.1l.6-.8h.8s.3.5.3.5l-.3,1.7-1.1,1.6-1,.9ZM29.2,19.2v.2c0,.9-.2,1.5-.4,1.9,0,0,0,.1,0,.2l.7-.6,1-1.5.3-1.5v-.3c-.1,0-.6,0-.6,0l-.5.7-.4,1Z"/>
      </g>
      <g>
        <path class="cls-22" d="M30.4,17.8c-.3,2.7-1.9,3.7-1.8,3.9.4.4,1-.4,1.6-1.2s1.3-1.6,1.3-2.2c0-.8-.5-.8-.8-1.3-.2-.4-.2-.9-.5-1.1.2,0,.6.1.6.1-1-.7-1.8.3-2.6.9-.7.6-1.3,1.2-1.5,2.2-.2,1,.1,2.2,0,3.1.9-.3,1-1.3,1.8-2.4.5-.7,1.7-1.5,1.9-2.5"/>
        <path class="cls-10" d="M26.7,22.5v-.2c0-.4,0-.7,0-1.2,0-.6-.1-1.3,0-1.9.3-1.1.9-1.8,1.6-2.3.1-.1.3-.2.4-.3.7-.6,1.4-1.2,2.3-.6l.8.5-.9-.3c0,0-.2,0-.2,0,0,.1.1.3.2.4,0,.1,0,.3.1.4.1.2.2.3.3.4.2.2.4.4.5,1,0,.6-.6,1.4-1.2,2.1l-.2.3c-.5.6-1,1.2-1.4,1.3-.1,0-.3,0-.4-.1h0s0,0,0,0c0-.2,0-.3.3-.6.4-.5,1.1-1.3,1.4-2.8-.2.2-.4.5-.7.7-.3.3-.5.5-.7.8-.3.4-.5.8-.7,1.2-.3.6-.6,1.1-1.2,1.3h-.2ZM30.1,16c-.4,0-.8.4-1.3.8-.1.1-.3.2-.4.3-.6.5-1.2,1.2-1.5,2.2-.1.6,0,1.2,0,1.8,0,.3,0,.7,0,1,.4-.2.6-.6.8-1.1.2-.4.4-.8.7-1.2.2-.3.5-.5.7-.8.4-.4.8-.8,1-1.2,0,0,0,0,0,0,0-.1.1-.2.1-.4,0,0,0-.1.2-.1,0,0,.1,0,.1.2,0,.2,0,.3-.1.4-.2,1.9-1.1,3-1.5,3.5,0,.1-.2.2-.2.3,0,0,0,0,0,0,.3,0,.8-.6,1.2-1.2l.2-.3c.5-.7,1.1-1.4,1.1-1.9,0-.4-.2-.6-.4-.8-.1-.1-.3-.3-.4-.5,0-.2-.1-.3-.2-.5,0-.3-.1-.5-.3-.6h0Z"/>
      </g>
      <g>
        <path class="cls-42" d="M33.3,13.1c1.8,1.9,2.5,4.5.6,5.3-2,.7-3.7-1.5-3.5-3.7"/>
        <path class="cls-10" d="M33.3,13.1c1.4,1.3,3.1,4.4.7,5.5-2.3.7-3.9-1.8-3.5-3.8-.1,1.8,1.3,4.2,3.4,3.6,2.2-1,.6-3.9-.6-5.2h0Z"/>
      </g>
      <g>
        <path class="cls-23" d="M32.7,13.7c.4.7.6,1.7,0,2-.6.3-1.5-.3-2-1.1"/>
        <path class="cls-10" d="M32.7,13.7c.4.6.9,1.8,0,2.2-.8.2-1.6-.6-1.9-1.3.4.5,1.2,1.2,1.8,1,.7-.3.3-1.4,0-1.9h0Z"/>
      </g>
      <g>
        <path class="cls-43" d="M31.3,14.6c.2.3.6.7,1,.6s.1,0,.1,0c.1-.2.1-.7,0-1.1,0,0-.4.3-1.1.6Z"/>
        <path class="cls-10" d="M31.3,14.6c.2.3.6.6,1,.5,0,0,0,0,0,0,.1-.3,0-.7,0-1,0,0,.2,0,.2,0-.4.2-.7.4-1.2.5h0ZM31.3,14.6c.3-.2.7-.5,1-.7,0,0,.1,0,.1,0,.2.4.3.8.2,1.2,0,.1,0,.3-.2.4-.5.2-.9-.3-1.1-.7h0Z"/>
      </g>
      <path class="cls-10" d="M28.1,15c-1.3-.1-2.4-.5-3.2-1.2,0,0,0-.1,0-.2,0,0,.1,0,.2,0,1,.9,2.9,1.3,4.6,1.1,1.6-.2,2.8-.9,3.5-2,0,0,.1,0,.2,0,0,0,0,.1,0,.2-.8,1.1-2.1,1.9-3.7,2.1-.6,0-1.1,0-1.7,0Z"/>
      <polygon class="cls-39" points="19.4 25.3 18.2 25.7 17.3 20.7 18.1 17.8 19.2 18.2 20 21 19.4 25.3"/>
      <g>
        <path class="cls-48" d="M11.7,21.1c-.3,2.4,1.6,8,3,9.8s.2,0,.2,0c0-.6-.5-2.9-.4-4.1s0,0,0,0c.4.4.8,1,1.5,1,.9,0,1.1-1.1,1.6-1.4.7-.4,2.8.2,3.2-3.4-.7,3.1-2.3,2-3.3,3.1"/>
        <path class="cls-10" d="M14.8,31.1c0,0-.1,0-.2,0-1.5-1.9-3.4-7.5-3.1-9.9,0,0,0-.1.2-.1,0,0,.1,0,.1.2-.3,2.3,1.5,7.7,2.9,9.6,0-.2,0-.6-.1-1-.2-1-.3-2.1-.2-2.9,0,0,0-.1.1-.2,0,0,.1,0,.2,0,0,0,.1.1.2.2.4.4.7.7,1.2.8.5,0,.7-.3,1-.7.2-.2.3-.5.5-.6.2,0,.4-.1.7-.2.7-.1,1.5-.3,2.1-1.4-.5.6-1,.8-1.5.9-.4.1-.8.2-1.1.6,0,0-.1,0-.2,0,0,0,0-.1,0-.2.4-.4.8-.6,1.3-.7.8-.2,1.6-.4,2-2.4h.3c-.3,3-1.7,3.2-2.7,3.4-.2,0-.4,0-.6.1-.1,0-.3.3-.4.5-.3.4-.6.9-1.2.9-.6,0-1-.5-1.4-.9,0,0,0,0,0,0,0,.7.1,1.8.2,2.6,0,.6.2,1,.1,1.2,0,.1,0,.2-.2.2,0,0,0,0,0,0ZM14.8,30.8h0s0,0,0,0Z"/>
      </g>
      <g>
        <path class="cls-47" d="M20.6,19.1c.6-1.5.7-2.8.3-4.1-.2-.7-.5-1.3-.7-1.9-.9-2.6-.5-6.2-1.4-6.6s0,0,0,0,0,0,0,0c-.3,0-.4,0-.5,0-5,.2-6,6.3-5.3,10.5"/>
        <path class="cls-10" d="M20.6,19.2s0,0,0,0c0,0-.1-.1,0-.2.6-1.4.7-2.6.3-4-.1-.4-.3-.9-.5-1.3,0-.2-.2-.4-.3-.6-.4-1.2-.6-2.6-.7-3.9-.1-1.3-.2-2.5-.6-2.7,0,0,0,0,0,0-.2,0-.3,0-.4,0,0,0,0,0,0,0h0c-1.5,0-2.7.7-3.7,1.8-1.8,2.3-1.9,6-1.5,8.5,0,0,0,.2-.1.2,0,0-.2,0-.2-.1-.5-2.5-.3-6.4,1.6-8.7,1-1.2,2.3-1.9,3.9-2,0,0,0,0,0,0,0,0,.2,0,.5,0,0,0,0,0,0,0,0,0,0,0,0,0,.6.2.7,1.4.8,2.9.1,1.2.2,2.6.6,3.8,0,.2.2.4.3.6.2.4.4.9.5,1.3.4,1.4.3,2.7-.3,4.2,0,0,0,0-.1,0Z"/>
      </g>
      <path class="cls-10" d="M20.3,15.7c.4.8.4,1.8,0,2.7,0-.9,0-1.8,0-2.7h0Z"/>
      <path class="cls-10" d="M20,16.5c.2.4.2.9,0,1.3,0-.4-.1-.9,0-1.3h0Z"/>
      <path class="cls-10" d="M19.4,16.2c.3.5.4,1.1.3,1.7,0-.6-.2-1.1-.3-1.7h0Z"/>
      <g>
        <path class="cls-45" d="M42.7,17.3c-.6-1.8-.5-3.3,0-4.6.3-.8.7-1.4,1-2.1,1.3-2.8,1.1-7,2.2-7.3s0,0,0,0,0,0,0,0c.4,0,.5,0,.6,0,5.6.8,6.2,7.7,4.9,12.3"/>
        <path class="cls-10" d="M42.7,17.4c0,0-.1,0-.1,0-.5-1.7-.5-3.2,0-4.7.2-.5.4-1,.7-1.4.1-.2.2-.5.4-.7.6-1.3.9-2.9,1.1-4.2.3-1.7.5-3,1.2-3.2,0,0,0,0,.1,0,0,0,0,0,0,0,.3,0,.5,0,.6,0,0,0,0,0,0,0,1.8.2,3.2,1.1,4.1,2.6,1.9,2.8,1.6,7.1.9,9.9,0,0,0,.1-.2.1,0,0-.1,0-.1-.2.7-2.8,1-7-.8-9.7-.9-1.4-2.3-2.2-4-2.5h0s0,0,0,0c0,0-.2,0-.5,0,0,0,0,0,0,0-.5.2-.7,1.5-1,2.9-.3,1.4-.5,3-1.1,4.3-.1.2-.2.5-.4.7-.2.4-.5.9-.7,1.4-.5,1.5-.5,2.9,0,4.5,0,0,0,.2,0,.2,0,0,0,0,0,0ZM46,3.4s0,0,0,0c0,0,0,0,0,0Z"/>
      </g>
      <path class="cls-10" d="M43.2,13.5c-.2,1-.3,2-.2,3-.2-1-.2-2.1.2-3h0Z"/>
      <path class="cls-10" d="M43.4,14.4c0,.5,0,1-.1,1.5-.1-.5,0-1,.1-1.5h0Z"/>
      <path class="cls-10" d="M44,14.2c-.2.6-.3,1.3-.4,1.9,0-.6,0-1.3.4-1.9h0Z"/>
      <path class="cls-10" d="M29.5,16.9s-.2,0-.4.2c-.2.1-.3.3-.2.3,0,0,.2,0,.4-.2.2-.1.3-.3.2-.3ZM29.2,17.2c-.1.1-.2.2-.2.1,0,0,0-.1.2-.2.1-.1.2-.2.2-.1,0,0,0,.1-.2.2Z"/>
    </g>
    <path class="cls-10" d="M60.4,50.5h0l-2.6,2.5c-1.3-.3-3.2-.8-5.8-1.3l-19.9,10.9-19.8-10.8c-1.9.3-3.9.8-6,1.2l-2.6-2.5h0l2.4-17.2h51.8l2.4,17.2Z"/>
    <polygon class="cls-17" points="52.2 48.9 51.8 49.3 57.7 50.5 58.1 50.1 52.2 48.9"/>
    <polygon class="cls-28" points="11.8 48.9 5.9 50.1 6.3 50.5 12.2 49.3 11.8 48.9"/>
    <polygon class="cls-6" points="32 47.4 30.7 50 27.9 50.4 29.9 52.4 29.4 55.3 32 53.9 34.6 55.3 34.1 52.4 36.1 50.4 33.3 50 32 47.4"/>
    <path class="cls-18" d="M33.3,50l-1.3,1.3,4.1-.9-2.9-.4ZM34.1,52.4l-2.1-1.1,2.6,3.9-.5-2.8ZM29.4,55.3l2.6-1.3v-2.6l-2.6,3.9ZM27.9,50.4l2.1,2,2.1-1.1-4.1-.9ZM30.7,50l1.3,1.3v-3.9l-1.3,2.6Z"/>
    <g>
      <path class="cls-36" d="M10,39c0-.7.2-1.4.3-2.1-.5,0-.7,0-1.2,0-.4,3.1-.9,6.2-1.3,9.3.5,0,.8-.1,1.3-.2.2-1.2.3-2.3.5-3.5,0-.3,0-.5.1-.8,0-.5.1-.8.2-1.3.4.3.9.6,1.4.9,0,0,0,.1,0,.2,0,.6-.1,1.1-.2,1.7,0,0,0,0,0,.2-.1.8-.2,1.6-.3,2.4,0,.6-.2,1.2-.2,1.8-.5.1-1,.2-1.6.3-.5.1-.8.2-1.3.3-.5.1-1,.2-1.6.4,0-.7.2-1.3.3-2,.5-3.2.9-6.4,1.4-9.5,0-.7.2-1.3.3-2h1.4c.5,0,.7,0,1.2,0h1.4c0,.6-.2,1.2-.2,1.8l-.3,2.1c-.6,0-.9,0-1.5,0Z"/>
      <path class="cls-36" d="M17.3,35c-.2,1.9-.4,3.9-.6,5.8,0,0,0,0,0,.2,0,.6,0,.9-.2,1.5,0,0,0,0,0,.1l-.4,3.9c-.5,0-1,.2-1.6.2.2-1.5.3-3.1.5-4.6.2,0,.3,0,.5,0,0,0,0,0,0,0-.2,0-.2-.1-.4-.2-.5-.3-.7-.4-1.2-.7-.2,2-.5,3.9-.7,5.9-.5,0-1,.2-1.6.3.3-2.4.6-4.7.9-7.1,0,0,0-.1,0-.2l.2-1.6c0,0,0,0,0-.2.1-1.1.3-2.2.4-3.2h1.4c-.2,1.4-.3,2.8-.5,4.2.5.3.7.5,1.1.8.2-1.6.4-3.3.5-4.9h1.4Z"/>
      <path class="cls-36" d="M20,40.9c-.2,0-.2-.1-.4-.2-.1,1.3-.2,2.5-.3,3.8,0,.6,0,1.1-.1,1.7-.5,0-1,.1-1.6.2,0-.6.1-1.2.2-1.7,0-.8.1-1.5.2-2.3,0-.7.1-1.4.2-2.2.2,0,.3,0,.4,0-.2-.1-.3-.2-.4-.3,0,0,0,0,0,0-.1,0-.2-.1-.4-.2,0,0,0,0,0-.2,0-.6,0-.9.1-1.5,0,0,0,0,0-.1.1,0,.2.1.4.2,0-1,.2-2,.3-3h1.4c-.1,1.3-.2,2.6-.3,3.9.1,0,.2.1.4.2,0,.6,0,1.2-.1,1.8Z"/>
      <path class="cls-36" d="M24.1,38.3c0-.6,0-1.2,0-1.8-.5,0-.7,0-1.2,0-.1,2.5-.3,5.1-.4,7.6.5,0,.8,0,1.3,0,0-1,0-2,.1-2.9,0-.3,0-.4,0-.7,0-.4,0-.6,0-1.1.5.3,1,.6,1.5.9,0,0,0,0,0,.1,0,.6,0,.8,0,1.4,0,0,0,0,0,.1,0,.7,0,1.3,0,2,0,.6,0,.9,0,1.6-.6,0-.9,0-1.6.1-.5,0-.8,0-1.3.1-.6,0-.9,0-1.6.1,0-.5,0-1.1.1-1.6.2-2.6.4-5.2.5-7.7,0-.5,0-1.1.1-1.6h4.1c0,.6,0,.9,0,1.6,0,.6,0,1.2,0,1.7-.6,0-.9,0-1.5,0Z"/>
      <path class="cls-36" d="M31.1,39.4c-.3.2-.4.3-.7.4.3.2.4.3.7.4,0,0,0,0,0,0,0,0,0,0,0,.1,0,.6,0,.8,0,1.4,0,0,0,0,0,.1,0,1.2,0,2.3,0,3.5-.6,0-.9,0-1.6,0,0-1.4,0-2.7,0-4.1.2,0,.3,0,.5,0,0,0,0,0,0,0-.2,0-.3-.1-.4-.2-.5-.3-.7-.4-1.2-.7,0,1.7,0,3.4,0,5.1-.6,0-.9,0-1.6,0,0-2,.1-4,.2-6.1,0,0,0,0,0-.1,0-.6,0-.8,0-1.4h0c0-1.1,0-2,0-2.9h1.4c0,1.2,0,2.4,0,3.6.5.3.7.4,1.2.7,0-1.5,0-2.9,0-4.4h1.4c0,1.4,0,2.9,0,4.3Z"/>
      <path class="cls-36" d="M36.6,39.4c-.3.2-.4.2-.7.4.3.2.4.3.7.4,0,0,0,0,0,0,0,0,0,0,0,.1,0,.6,0,.8,0,1.4,0,0,0,0,0,.1,0,1.2.1,2.4.2,3.5-.6,0-.9,0-1.6,0,0-1.4,0-2.7-.1-4.1.2,0,.3,0,.5,0,0,0,0,0,0,0-.2-.1-.3-.2-.4-.3-.5-.3-.8-.5-1.3-.8,0,1.7,0,3.4.1,5.1-.6,0-.9,0-1.6,0,0-2,0-4,0-6,0,0,0,0,0-.1,0-.6,0-.8,0-1.4,0,0,0,0,0-.1,0-.9,0-1.8,0-2.8h1.4c0,1.2,0,2.4,0,3.6.5.3.7.4,1.3.7,0-1.5-.1-2.9-.2-4.4h1.4c0,1.5.1,2.9.2,4.4Z"/>
      <path class="cls-36" d="M40,40.7c-.2-.1-.2-.2-.4-.2,0,1.2.2,2.4.2,3.6v1.6c-.5,0-.8,0-1.4-.1,0-.5,0-1.1,0-1.6,0-.7,0-1.4-.1-2.2,0-.7,0-1.4-.1-2,.2,0,.3,0,.4,0-.2-.1-.3-.2-.5-.3,0,0,0,0,0,0-.2,0-.2-.1-.4-.2,0,0,0,0,0-.1,0-.6,0-.8,0-1.4,0,0,0,0,0-.1.2,0,.2.1.4.2,0-.9-.1-1.9-.2-2.8h1.4c0,1.2.2,2.5.2,3.7.2,0,.2.1.4.2v1.7Z"/>
      <path class="cls-36" d="M44.9,35c0,.9.2,1.8.3,2.7,0,0,0,0,0,.1,0,.6,0,.9.2,1.5,0,0,0,0,0,.2.1,1.3.3,2.5.4,3.8.1,1,.2,2,.3,3-.6,0-.9-.1-1.5-.2,0-1-.2-2-.3-2.9-.1-1.5-.3-2.9-.4-4.4.2,0,.3,0,.5,0-.6-.4-1.2-.8-1.8-1.1.2,2.8.5,5.5.7,8.3-.6,0-.9,0-1.5-.1-.2-3-.5-6.1-.7-9.1,0,0,0,0,0-.2,0,0,0-.1,0-.2,0-.5,0-.8,0-1.3,0,0,0,0,0-.2.9.6,1.9,1.1,2.8,1.7,0-.6-.1-1.2-.2-1.7h1.4Z"/>
      <path class="cls-36" d="M51.4,41.5c0,0,0,0,0,.2,0,.5.1,1.1.2,1.6,0,0,0,.1,0,.2-.2-.1-.3-.2-.5-.4,0,.8.2,1.5.3,2.3,0,0,0,0,0,0,0,.6.2,1.2.2,1.8-.9-.2-1.9-.3-2.8-.5-.6,0-.9-.1-1.5-.2,0-.6-.1-1.1-.2-1.7-.3-2.7-.6-5.4-.9-8.1,0-.6-.1-1.1-.2-1.7h4l.2,1.8c0,.7.2,1.3.3,2-.6,0-.9,0-1.5,0,0-.6-.2-1.3-.2-1.9-.5,0-.7,0-1.2,0,.3,2.8.6,5.5,1,8.3.5,0,.8.1,1.3.2-.1-1-.2-2-.4-3,.2,0,.2,0,.4,0-.3-.2-.5-.4-.8-.6,0-.6-.2-1.3-.2-1.9.8.6,1.7,1.2,2.5,1.8Z"/>
      <path class="cls-36" d="M55.9,35c0,.7.2,1.3.3,2,.1.7.2,1.5.3,2.2-.6,0-.9,0-1.5-.1-.1-.7-.2-1.5-.3-2.2-.5,0-.7,0-1.2,0,.1.9.2,1.7.4,2.6,1,.8,2,1.5,3,2.3,0,0,0,0,0,0,0,0,0,0,0,.1,0,.6.2,1.2.3,1.8,0,0,0,.1,0,.2.1.9.3,1.7.4,2.6,0,.7.2,1.3.3,2-.5-.1-1-.2-1.5-.4-.5-.1-.8-.2-1.3-.3-.5-.1-1-.2-1.5-.3,0-.6-.2-1.2-.2-1.8-.1-1-.3-2-.4-3.1.6,0,.9.1,1.5.2.1,1.1.3,2.1.4,3.2.5,0,.8.1,1.3.2-.2-1.1-.3-2.2-.5-3.3.2,0,.3,0,.5,0,0,0,0,0,0,0-.2-.2-.3-.2-.5-.4-1-.8-2-1.5-3-2.3,0,0,0,0,0-.1,0,0,0,0,0,0,0-.6-.1-1.1-.2-1.7,0,0,0,0,0-.2,0-.6-.1-.9-.2-1.5,0-.6-.2-1.2-.2-1.8h1.4c.5,0,.7,0,1.2,0h1.4Z"/>
    </g>
    <g>
      <path class="cls-27" d="M8.1,35.3h3.5l-.4,3.4c-.3,0-.6,0-.9,0l.3-2.1h-.3c-.5,0-.7,0-1.2,0h-.2s-1.4,9.9-1.4,9.9h.4c.5-.2.8-.2,1.3-.3h.2s.7-5.4.7-5.4c.3.2.6.4.8.6l-.8,5.8c-.5,0-.9.2-1.4.3-.5.1-.8.2-1.3.3-.4,0-.8.2-1.2.3l1.9-12.8Z"/>
      <path class="cls-40" d="M13.4,35.3h.9l-.5,4h.1c.4.4.7.5,1.1.9l.4.2.6-5.1h.9l-.7,6.9-.6-.3c-.2,0-.2-.1-.4-.2-.5-.3-.7-.4-1.2-.7l-.4-.2-.7,6.1c-.3,0-.7.1-1,.2l1.4-11.6ZM15.3,42.4c0,0,.9,0,.9,0l-.4,4c-.3,0-.7,0-1,.1l.4-4.1Z"/>
      <path class="cls-51" d="M18.1,44.6l.4-4.2c0,0,.9,0,.9,0l-.5,5.6c-.3,0-.7,0-1,.1v-1.4ZM19.4,40.2h0s-.6-.3-.6-.3c-.1,0-.2-.1-.3-.2h0s-.3-.2-.4-.2v-1.2c.1,0,.5.2.5.2l.3-3.2h.9l-.3,3.7s.3.2.4.2v1.2c0,0-.5-.2-.5-.2Z"/>
      <path class="cls-1" d="M21.9,35.3h3.5v2.7c-.4,0-.7,0-1,0v-1.8c0,0-.2,0-.2,0-.5,0-.7,0-1.2,0h-.3s-.5,8.2-.5,8.2h.3c.5,0,.8,0,1.3-.1h.2s.2-4.4.2-4.4c.3.2.6.4.9.5l-.2,4.8c-.5,0-.8,0-1.3,0-.5,0-.8,0-1.3.1-.5,0-.8,0-1.2.1l.7-10.4Z"/>
      <path class="cls-35" d="M27.3,35.3h.9v3.5c0,0,0,0,0,0,.5.3.7.4,1.2.7l.4.2h0c0,0,.7.4.9.5v4.8c-.3,0-.6,0-1,0v-3.5c0,0,.1,0,.2,0v-.5c.1,0,.1,0,.1,0l-.4-.2c-.5-.3-.7-.4-1.2-.7l-.4-.2v5.3c-.5,0-.7,0-1.1,0l.3-9.9ZM29.9,35.3h.9v3.9s-.9.5-.9.5v-4.4Z"/>
      <path class="cls-20" d="M36.6,45.2c-.4,0-.6,0-1,0v-3.6c0,0,0,0,0,0v-.5c.1,0,.1,0,.1,0-.2-.1-.3-.2-.4-.3-.5-.3-.8-.5-1.3-.8l-.4-.3v5.3c-.2,0-.5,0-.9,0v-9.8c-.1,0,.7,0,.7,0v3.5c0,0,.3.1.3.1.5.3.7.4,1.2.7l.4.3h0c0,0,.3.1.3.1.2.1.4.2.6.4l.2,4.8ZM35.2,35.3h.9l.2,3.9c-.2.1-.3.2-.6.3l-.4.2-.2-4.5Z"/>
      <path class="cls-19" d="M39.6,45.4c-.4,0-.6,0-1,0v-1.4c0,0-.3-3.9-.3-3.9,0,0,.9,0,.9,0l.4,5.3ZM39.2,39.9h0s-.8-.5-1-.6h0s-.3-.2-.4-.3v-1c0,0,.3.2.3.2l-.2-3h.9l.2,3.6s.3.2.4.2v1c0,0-.3-.2-.3-.2Z"/>
      <path class="cls-11" d="M45.7,46c-.3,0-.6,0-1-.1l-.6-6.8s.9,0,.9,0l.7,6.9ZM42.9,45.7c-.3,0-.6,0-1,0l-.8-10c.8.5,1.6,1,2.3,1.4l.5.3-.2-2h.9l.4,3.7-.6-.4c-.6-.4-1.2-.7-1.8-1.1l-.5-.3.7,8.5Z"/>
      <path class="cls-24" d="M51.4,46.9c-.9-.2-1.7-.3-2.4-.4-.5,0-.8-.1-1.3-.2l-1.2-11h3.5l.4,3.2c-.3,0-.6,0-.9,0l-.2-2h-.2c-.5,0-.7,0-1.2,0h-.3s1,8.8,1,8.8h.2c.5,0,.7.1,1.3.2h.4c0,0-.4-2.9-.4-2.9,0,0,.9,0,.9,0l.4,3h0s.2,1.2.2,1.2ZM51,42.6h0s-.9-.6-.9-.6c-.3-.2-.5-.3-.7-.5v-1.1c.5.4,1.1.9,1.7,1.3l.2,1.2-.3-.2Z"/>
      <path class="cls-46" d="M57.6,48.1c-.4,0-.8-.2-1.1-.3-.5-.1-.8-.2-1.3-.3-.4,0-.9-.2-1.3-.3l-.6-4.4c.3,0,.6,0,.9.1l.4,3.1h.2c.5.1.8.2,1.3.3h.4c0,0-.5-3.2-.5-3.2,0,0,0,0,0,0l.2-.5h0c-.2-.2-.3-.2-.5-.4-1-.8-1.9-1.5-2.9-2.2l-.7-4.9h3.5l.5,3.6c-.3,0-.6,0-.9,0l-.3-2.2h-.2c-.5,0-.7,0-1.2,0h-.3s.4,3,.4,3h0c1,.8,2,1.6,2.9,2.3l.9,6.2Z"/>
    </g>
    <path class="cls-52" d="M46,48.9"/>
    <path class="cls-12" d="M14.2,49.5l11.5,6.5-.7.6-12.3-6.8c.5,0,.9-.2,1.4-.2Z"/>
    <path class="cls-3" d="M51.2,49.7l-12.2,6.8-.7-.6,11.5-6.5h0c.5,0,.9.2,1.4.2Z"/>
    <path class="cls-32" d="M49.8,49.5l-11.5,6.5-.3-.3v.5s-6,3.3-6,3.3l-5.9-3.3v-.5s-.4.3-.4.3l-11.5-6.5c1.3-.2,2.5-.4,3.8-.5l-1.7.9,15.7,8.6,15.7-8.6-1.7-.9c1.3.2,2.5.3,3.8.6Z"/>
  </g>
</svg>