<svg width="1274" height="1274" viewBox="0 0 1274 1274" fill="none" xmlns="http://www.w3.org/2000/svg">
<g clip-path="url(#clip0_1_40)">
<path d="M1275 614C1275 627.688 1275 641.375 1274.6 655.707C1273.79 665.6 1273.51 674.856 1272.97 684.097C1272.45 692.947 1272.11 701.846 1270.88 710.609C1268.56 727.162 1266.17 743.735 1262.87 760.111C1259.11 778.757 1254.86 797.342 1249.86 815.693C1242 844.595 1231.56 872.642 1218.94 899.817C1212.36 914.007 1205.36 928.031 1197.92 941.792C1190.95 954.691 1183.43 967.321 1175.65 979.757C1156.44 1010.47 1134.55 1039.29 1109.61 1065.48C1089.76 1086.32 1068.87 1106.35 1046.96 1125.01C1028.12 1141.05 1007.54 1155.14 987.105 1169.17C962.607 1186 936.482 1200.11 909.621 1212.89C879.331 1227.29 848.152 1239.37 816.024 1248.88C791.249 1256.21 766.188 1262.54 740.51 1266.01C723.246 1268.35 706.018 1271.03 688.701 1272.86C678.526 1273.94 668.206 1273.63 657.954 1274.04C656.625 1274.09 655.318 1274.67 654 1275C644.312 1275 634.625 1275 624.293 1274.6C614.735 1273.8 605.808 1273.59 596.912 1272.95C585.973 1272.16 575.024 1271.29 564.144 1269.93C550.606 1268.24 536.964 1266.78 523.67 1263.85C498.342 1258.26 472.959 1252.61 448.112 1245.25C427.983 1239.29 408.163 1231.78 389.006 1223.17C364.047 1211.95 339.412 1199.82 315.503 1186.52C292.05 1173.48 269.684 1158.48 248.877 1141.37C233.103 1128.4 216.974 1115.81 201.886 1102.08C189.139 1090.48 177.143 1077.94 165.75 1065C151.085 1048.34 137.012 1031.12 123.3 1013.66C103.087 987.925 86.1236 959.997 71.1777 930.962C61.5354 912.23 53.2188 892.787 44.9106 873.404C34.439 848.975 26.6267 823.596 20.0516 797.869C13.7118 773.063 8.46156 748.02 5.99748 722.481C4.59821 707.977 3.34222 693.46 1.96838 678.954C1.87307 677.948 1.33316 676.984 1 676C1 650.646 1 625.292 1.40339 599.294C2.20415 592.568 2.42744 586.468 3.0357 580.408C4.24239 568.384 5.33307 556.333 7.07285 544.381C9.43213 528.173 11.4628 511.835 15.2399 495.935C21.4109 469.955 28.5119 444.224 37.7966 419.068C50.7258 384.038 66.2115 350.332 84.9314 318.033C99.8988 292.208 116.227 267.318 135.292 244.37C150.808 225.692 166.856 207.432 183.238 189.508C191.003 181.012 199.853 173.445 208.643 165.964C223.692 153.155 238.834 140.432 254.379 128.236C282.691 106.024 313.292 87.2717 345.38 71.117C364.489 61.4965 384.032 52.5486 403.965 44.8066C425.067 36.6108 446.619 29.3265 468.418 23.2303C497.581 15.0748 527.229 8.71835 557.501 6.00925C573.839 4.54718 590.199 3.34476 606.545 1.97207C608.047 1.84597 609.516 1.33321 611 1C626.688 1 642.375 1.00001 658.707 1.40382C667.764 2.20498 676.184 2.50603 684.589 3.02582C693.602 3.58316 702.668 3.87161 711.592 5.12265C727.978 7.41953 744.428 9.63772 760.573 13.1629C783.38 18.1427 806.187 23.443 828.523 30.1694C848.798 36.2751 868.869 43.4992 888.257 51.9943C912.141 62.4597 935.848 73.6617 958.475 86.5718C979.619 98.6357 999.864 112.53 1019.38 127.125C1039.49 142.171 1058.81 158.42 1077.42 175.308C1091.36 187.959 1103.85 202.248 1116.55 216.202C1125.9 226.477 1135.07 237.004 1143.41 248.097C1160.32 270.566 1176.03 293.841 1190.19 318.219C1203.91 341.852 1216.15 366.185 1226.57 391.361C1240.37 424.692 1251.44 458.928 1259.27 494.261C1264.83 519.34 1268.99 544.588 1271.86 570.048C1273.33 583.13 1273.31 596.378 1274.03 609.547C1274.12 611.045 1274.67 612.516 1275 614ZM216.547 253.057C176.975 296.418 144.424 344.487 119.752 397.799C76.3154 491.661 60.0128 590.12 69.8004 693.016C73.8683 735.782 82.5978 777.57 96.3811 818.209C130.893 919.965 189.025 1005.92 271.439 1074.86C375.355 1161.78 495.52 1206.21 630.961 1208.73C673.034 1209.52 714.735 1205.14 755.896 1196.13C873.892 1170.31 975.021 1114.01 1056.49 1024.93C1174.6 895.78 1222.95 742.884 1204.6 569.166C1197.49 501.851 1177.18 438.092 1146.16 377.858C1099.54 287.33 1033.69 213.988 948.161 158.765C850.023 95.404 742.097 65.7929 625.442 67.4535C590.045 67.9574 554.981 71.7805 520.413 79.2928C401.154 105.21 300.202 163.338 216.547 253.057Z" fill="#212121"/>
<path d="M216.797 252.805C300.202 163.338 401.154 105.21 520.413 79.2928C554.981 71.7805 590.045 67.9574 625.442 67.4535C742.097 65.793 850.023 95.404 948.161 158.765C1033.69 213.988 1099.54 287.33 1146.16 377.859C1177.18 438.092 1197.49 501.851 1204.6 569.166C1222.95 742.884 1174.6 895.78 1056.49 1024.93C975.021 1114.01 873.892 1170.31 755.896 1196.13C714.735 1205.14 673.034 1209.52 630.961 1208.73C495.52 1206.21 375.355 1161.78 271.439 1074.86C189.025 1005.92 130.893 919.965 96.3811 818.209C82.5978 777.57 73.8682 735.782 69.8004 693.016C60.0128 590.12 76.3154 491.662 119.752 397.799C144.424 344.487 176.975 296.418 216.797 252.805ZM849.692 987.956C855.506 982.791 861.821 978.084 867.052 972.383C896.357 940.441 912.247 902.763 912.351 859.307C912.453 816.546 896.654 779.736 866.753 749.276C842.088 724.148 812.072 716.333 777.941 724.057C764.802 727.031 753.202 733.128 742.918 742.724C744.802 743.308 746.06 743.71 747.325 744.089C776.201 752.75 801.059 767.928 818.976 792.308C859.446 847.38 870.791 908.215 852.58 974.32C851.322 978.888 850.228 983.501 848.705 987.792C848.607 988.035 848.51 988.278 848.412 988.522C848.603 988.34 848.794 988.158 849.692 987.956ZM764.618 618.747C783.95 602.248 804.848 588.105 827.67 576.864C877.614 552.266 929.839 546.441 984.117 558.059C1023.57 566.503 1059.17 582.784 1089.2 610.274C1116.91 635.648 1135.88 666.81 1149.74 701.378C1150.37 702.954 1151 704.533 1152.14 707.407C1152.6 705.249 1152.78 704.654 1152.85 704.047C1156.07 676.649 1154.27 649.543 1147.86 622.752C1132.63 559.129 1095.52 513.782 1034.77 488.669C1000.76 474.609 965.6 473.766 929.86 481.038C851.95 496.891 796.059 539.855 765.347 614.014C764.686 615.61 764.601 617.444 764.133 619.248L763.998 619.034C763.998 619.034 764.147 619.226 764.618 618.747ZM536.011 618.903C535.128 633.86 530.675 639.048 516.083 641.797C511.343 642.69 506.541 643.264 501.759 643.922C495.101 644.838 492.729 646.956 492.552 653.432C492.33 661.584 492.646 669.751 492.652 677.911C492.665 695.4 492.623 712.889 492.613 730.377C492.605 743.13 492.611 755.883 492.611 768.714C507.596 768.714 521.675 768.714 536.321 768.714C536.321 736.711 536.321 704.99 536.321 673.296C573.807 673.296 610.723 673.296 647.771 673.296C647.863 674.213 647.983 674.853 647.984 675.493C648.021 703.319 648.093 731.144 648.047 758.97C648.033 767.602 650.293 770.05 658.87 770.003C670.866 769.936 682.862 769.884 694.859 769.841C700.154 769.821 705.449 769.837 711.315 769.837C710.321 763.326 709.553 757.416 708.502 751.558C703.615 724.34 702.464 696.972 705.311 669.474C709.387 630.106 721.45 593.133 739.029 557.815C769.191 497.217 813.067 450.477 875.474 422.379C925.863 399.692 978.121 391.732 1032.81 401.989C1058.07 406.725 1081.67 415.934 1104.63 427.132C1106.29 427.944 1108.04 428.586 1109.75 429.306C1109.46 427.001 1108.66 425.567 1107.78 424.188C1095.54 405.124 1080.03 389.152 1060.93 377.062C1005.12 341.736 944.874 332.421 880.861 347.989C810.036 365.213 753.82 403.265 715.784 466.222C708.955 477.526 703.69 489.861 698.565 502.082C694.612 511.511 688.139 515.982 678.247 515.796C671.76 515.674 665.279 515.168 658.798 514.784C650.339 514.282 648.029 516.541 648.047 524.935C648.122 558.592 648.152 592.248 648.147 625.905C648.145 634.491 646.431 636.165 637.935 636.155C606.776 636.119 575.616 636.074 544.456 635.958C542.051 635.95 539.647 635.364 536.926 635.004C536.926 629.016 536.926 623.536 537.073 617.12C537.073 602.462 537.073 587.803 537.073 573.144C536.74 573.146 536.407 573.148 536.074 573.15C536.074 588.118 536.074 603.087 536.011 618.903ZM336.968 703.469C344.043 688 351.118 672.531 358.11 657.242C357.805 657.429 357.082 657.759 356.494 658.25C337.068 674.467 317.217 690.208 298.36 707.062C278.304 724.987 260.581 745.047 247.786 769.082C237.573 788.269 230.209 808.494 223.827 829.451C222.658 821.427 221.65 813.37 221.976 805.368C223.294 773.074 234.201 743.714 251.855 717.089C272.002 686.705 293.116 656.956 314.12 627.15C327.848 607.668 339.784 587.429 344.42 563.693C346.113 555.023 347.314 546.258 348.739 537.537C348.214 537.387 347.689 537.238 347.164 537.088C345.768 539.449 344.47 541.874 342.954 544.155C339.921 548.721 337.3 553.711 333.579 557.648C305.439 587.425 277.118 617.034 248.766 646.61C214.369 682.491 194.752 724.772 192.099 774.762C189.203 829.315 203.341 878.888 234.74 923.48C242.352 934.289 250.89 944.445 259.002 954.902C259.165 950.195 258.235 946.157 257.536 942.079C254.453 924.095 252.714 906.04 257.121 888.055C258.28 883.326 260.961 878.97 262.944 874.442C263.519 874.622 264.094 874.801 264.669 874.981C265.128 877.359 265.569 879.741 266.05 882.116C266.545 884.561 266.965 887.029 267.61 889.436C291.02 976.83 346.554 1035.07 429.988 1067.7C442.964 1072.78 456.741 1075.2 470.899 1075.79C470.699 1075.19 470.694 1074.77 470.49 1074.61C469.301 1073.71 468.075 1072.85 466.844 1072C430.715 1047.1 398.949 1017.76 374.637 980.924C338.214 925.735 323.254 865.36 330.724 799.481C333.697 773.259 339.371 747.657 346.773 722.385C347.226 720.836 347.485 719.229 347.834 717.65C347.199 717.466 346.564 717.282 345.929 717.098C338.54 736.111 331.151 755.125 323.762 774.138C323.586 749.84 328.361 726.672 336.968 703.469ZM271.718 475.216C268.005 480.938 263.961 486.475 260.646 492.419C253.038 506.058 249.64 520.587 253.006 536.179C258.161 560.051 283.835 571.983 304.046 559.707C317.426 551.58 326.407 539.816 330.03 524.475C335.023 503.328 331.262 483.231 322.194 463.787C317.355 453.412 312.425 443.006 308.683 432.217C306.252 425.205 302.307 420.393 296.097 416.913C291.211 414.173 286.411 411.28 281.321 408.309C285.479 402.233 289.28 396.614 293.145 391.04C309.921 366.848 332 350.192 361 343.42C384.594 337.91 407.943 340.561 431.269 345.392C447.049 348.66 462.785 353.214 478.741 354.327C504.617 356.134 519.226 346.225 527.604 326.836C533.301 313.652 534.322 299.783 532.423 285.683C531.073 275.661 528.01 266.204 521.78 258.039C515.58 249.913 511.896 249.303 503.15 254.337C491.901 260.812 480.5 267.022 469.279 273.543C462.084 277.725 454.224 277.992 445.838 278.545C449.132 268.84 452.137 259.531 455.461 250.338C458.102 243.036 456.77 236.395 452.461 228.559C446.687 231.383 440.331 233.288 435.459 237.092C418.395 250.418 401.911 264.483 385.042 278.063C381.393 281 377.06 283.088 372.152 286.116C372.152 277.943 372.3 271.173 372.123 264.412C371.686 247.699 359.817 240.721 345.297 249.088C340.582 251.805 336.27 255.938 333.041 260.351C328.149 267.038 324.216 274.453 320.155 281.715C316.449 288.345 313.116 295.184 309.312 302.521C307.697 297.974 306.33 293.902 304.807 289.889C302.462 283.709 297.456 281.436 292.195 285.307C286.811 289.268 281.162 293.843 277.839 299.457C264.752 321.573 264.436 344.646 275.463 367.758C278.318 373.74 282.093 379.282 285.437 385.03C288.393 390.111 287.731 393.099 282.746 395.726C278.924 397.74 274.951 399.473 271.01 401.254C256.642 407.745 242.981 415.383 232.4 427.349C227.263 433.158 222.917 439.667 218.213 445.86C218.605 446.202 218.996 446.545 219.388 446.887C243.97 442.371 268.512 442.364 293.885 446.88C286.258 456.601 279.188 465.612 271.718 475.216ZM793.07 638.577C774.542 651.949 759.422 668.245 749.54 689.172C752.792 688.053 755.699 686.54 758.539 684.912C787.002 668.607 817.359 661.229 850.115 665.994C892.337 672.137 927.956 690.611 954.974 724.073C994.419 772.927 1006.26 829.355 999.492 890.624C997.947 904.621 995.934 918.567 994.136 932.536C994.631 932.962 995.125 933.389 995.62 933.815C996.45 932.397 997.066 930.787 998.141 929.588C1024.27 900.445 1043.9 867.555 1055.94 830.202C1073.9 774.46 1066.93 722.328 1032.54 674.675C1011.31 645.254 981.501 627.507 947.605 616.068C923.508 607.937 898.848 604.016 873.389 606.518C843.793 609.428 817.497 620.73 793.07 638.577ZM405.772 381.868C404.233 381.595 402.695 381.322 400.658 380.96C407.874 390.3 414.997 398.842 421.386 407.902C453.951 454.088 462.338 503.634 442.485 557.418C437.146 571.88 433.264 586.948 429.671 601.967C426.316 615.989 429.409 629.045 438.856 640.308C441.65 643.639 444.775 645.174 448.832 642.525C465.556 631.608 482.353 620.799 498.948 609.688C505.945 605.003 509.551 597.803 510.945 589.668C512.04 583.282 512.813 576.81 513.226 570.344C515.817 529.841 510.589 490.41 493.599 453.399C476.35 415.825 448.737 389.759 405.772 381.868ZM400.216 930.259C411.32 952.512 427.456 970.54 447.659 984.708C504.088 1024.28 566.996 1040.51 635.534 1035.64C642.056 1035.18 648.551 1034.31 655.058 1033.63C648.051 1031.78 641.045 1030.98 634.06 1030.02C596.893 1024.96 561.058 1015.28 527.313 998.643C467.064 968.938 424.647 922.041 396.045 861.925C393.168 855.879 390.481 849.744 387.276 842.708C384.648 873.449 386.473 902.369 400.216 930.259ZM369.928 424.565C374.933 420.952 377.521 415.881 378.596 409.961C380.625 398.783 374.123 389.422 362.904 387.266C350.517 384.886 339.9 391.318 337.805 402.476C336.147 411.305 338.723 418.764 345.961 423.983C353.316 429.286 361.314 429.76 369.928 424.565Z" fill="#F5BB0A"/>
<path d="M536.926 618.056C536.926 623.536 536.926 629.016 536.926 635.004C539.647 635.364 542.051 635.95 544.456 635.958C575.616 636.074 606.776 636.119 637.935 636.155C646.431 636.165 648.145 634.491 648.147 625.905C648.152 592.248 648.122 558.591 648.047 524.935C648.029 516.541 650.339 514.282 658.798 514.783C665.279 515.168 671.76 515.674 678.247 515.796C688.139 515.982 694.612 511.511 698.565 502.081C703.69 489.861 708.955 477.526 715.784 466.222C753.82 403.265 810.036 365.213 880.861 347.989C944.874 332.421 1005.12 341.736 1060.93 377.062C1080.03 389.152 1095.54 405.124 1107.78 424.188C1108.66 425.567 1109.46 427.001 1109.75 429.306C1108.04 428.586 1106.29 427.944 1104.63 427.132C1081.68 415.934 1058.07 406.724 1032.81 401.989C978.121 391.732 925.863 399.692 875.474 422.379C813.067 450.477 769.191 497.217 739.029 557.815C721.45 593.133 709.387 630.106 705.311 669.473C702.464 696.972 703.615 724.34 708.502 751.558C709.553 757.416 710.321 763.326 711.315 769.837C705.449 769.837 700.154 769.821 694.859 769.841C682.862 769.884 670.866 769.936 658.87 770.003C650.293 770.05 648.033 767.602 648.047 758.97C648.093 731.144 648.021 703.318 647.984 675.493C647.983 674.853 647.863 674.213 647.771 673.296C610.723 673.296 573.807 673.296 536.321 673.296C536.321 704.99 536.321 736.711 536.321 768.714C521.675 768.714 507.596 768.714 492.611 768.714C492.611 755.883 492.605 743.13 492.613 730.377C492.623 712.889 492.665 695.4 492.652 677.911C492.646 669.751 492.33 661.584 492.552 653.432C492.729 646.956 495.101 644.838 501.759 643.922C506.541 643.264 511.343 642.69 516.083 641.797C530.675 639.048 535.128 633.86 536.256 618.431C536.5 617.958 536.926 618.056 536.926 618.056Z" fill="#222221"/>
<path d="M336.845 703.839C328.361 726.672 323.586 749.84 323.762 774.138C331.151 755.125 338.54 736.111 345.929 717.098C346.564 717.282 347.199 717.466 347.834 717.65C347.485 719.229 347.226 720.836 346.773 722.385C339.371 747.657 333.697 773.259 330.724 799.481C323.254 865.36 338.214 925.735 374.637 980.924C398.949 1017.76 430.715 1047.1 466.844 1072C468.075 1072.85 469.301 1073.71 470.49 1074.61C470.694 1074.77 470.699 1075.19 470.899 1075.79C456.741 1075.2 442.964 1072.78 429.988 1067.7C346.554 1035.07 291.02 976.83 267.61 889.436C266.965 887.029 266.545 884.561 266.05 882.115C265.569 879.741 265.128 877.359 264.669 874.981C264.094 874.801 263.519 874.622 262.944 874.442C260.961 878.97 258.28 883.326 257.121 888.055C252.714 906.04 254.453 924.095 257.536 942.079C258.235 946.157 259.165 950.195 259.002 954.902C250.89 944.445 242.352 934.289 234.74 923.48C203.341 878.888 189.203 829.315 192.099 774.762C194.752 724.772 214.369 682.491 248.766 646.61C277.118 617.034 305.439 587.425 333.579 557.648C337.3 553.711 339.921 548.721 342.954 544.155C344.47 541.874 345.768 539.449 347.164 537.088C347.689 537.238 348.214 537.387 348.739 537.537C347.314 546.258 346.113 555.023 344.42 563.693C339.784 587.429 327.848 607.668 314.12 627.149C293.116 656.956 272.002 686.705 251.855 717.089C234.201 743.714 223.294 773.074 221.976 805.368C221.65 813.37 222.658 821.427 223.827 829.451C230.209 808.494 237.573 788.269 247.786 769.082C260.581 745.047 278.304 724.987 298.36 707.062C317.217 690.208 337.068 674.467 356.494 658.25C357.082 657.759 357.805 657.429 358.11 657.242C351.118 672.531 344.043 688 336.845 703.839Z" fill="#222221"/>
<path d="M271.918 474.919C279.188 465.612 286.258 456.601 293.885 446.88C268.512 442.364 243.97 442.371 219.388 446.887C218.996 446.544 218.605 446.202 218.213 445.859C222.917 439.667 227.263 433.158 232.4 427.349C242.982 415.383 256.642 407.745 271.01 401.254C274.951 399.473 278.924 397.74 282.746 395.726C287.731 393.099 288.393 390.111 285.437 385.03C282.093 379.282 278.318 373.74 275.463 367.758C264.436 344.646 264.752 321.573 277.839 299.457C281.162 293.843 286.811 289.268 292.195 285.307C297.456 281.436 302.462 283.709 304.807 289.889C306.33 293.902 307.697 297.974 309.312 302.521C313.116 295.184 316.449 288.345 320.155 281.715C324.216 274.453 328.149 267.038 333.041 260.35C336.27 255.938 340.582 251.805 345.297 249.088C359.817 240.721 371.686 247.698 372.123 264.412C372.3 271.173 372.152 277.943 372.152 286.116C377.06 283.088 381.393 281 385.042 278.063C401.911 264.483 418.395 250.418 435.46 237.092C440.331 233.288 446.687 231.383 452.461 228.559C456.77 236.395 458.102 243.036 455.461 250.338C452.137 259.531 449.132 268.84 445.838 278.545C454.224 277.992 462.084 277.725 469.279 273.543C480.5 267.022 491.901 260.811 503.15 254.337C511.896 249.303 515.58 249.912 521.78 258.039C528.01 266.204 531.073 275.661 532.423 285.683C534.322 299.783 533.301 313.652 527.604 326.836C519.226 346.225 504.617 356.134 478.741 354.327C462.785 353.214 447.049 348.66 431.269 345.392C407.943 340.561 384.594 337.91 361 343.42C332 350.192 309.921 366.848 293.145 391.04C289.28 396.614 285.479 402.233 281.321 408.309C286.411 411.28 291.211 414.173 296.097 416.912C302.307 420.393 306.252 425.205 308.684 432.217C312.425 443.006 317.355 453.411 322.194 463.787C331.262 483.231 335.023 503.328 330.03 524.475C326.407 539.816 317.426 551.579 304.046 559.707C283.835 571.983 258.161 560.051 253.006 536.179C249.64 520.587 253.038 506.058 260.646 492.419C263.961 486.475 268.005 480.938 271.918 474.919Z" fill="#222221"/>
<path d="M793.348 638.35C817.497 620.73 843.793 609.428 873.389 606.518C898.848 604.016 923.508 607.937 947.605 616.068C981.501 627.507 1011.31 645.254 1032.54 674.675C1066.93 722.328 1073.9 774.46 1055.94 830.202C1043.9 867.555 1024.27 900.445 998.141 929.588C997.066 930.787 996.45 932.397 995.62 933.815C995.125 933.389 994.631 932.962 994.136 932.536C995.934 918.567 997.947 904.621 999.492 890.624C1006.26 829.355 994.419 772.927 954.974 724.073C927.956 690.611 892.337 672.137 850.115 665.994C817.359 661.229 787.002 668.607 758.539 684.912C755.699 686.54 752.792 688.053 749.54 689.172C759.422 668.245 774.542 651.949 793.348 638.35Z" fill="#222221"/>
<path d="M764.247 619.167C764.601 617.444 764.686 615.61 765.347 614.014C796.059 539.855 851.95 496.891 929.86 481.038C965.6 473.766 1000.76 474.609 1034.77 488.669C1095.52 513.782 1132.63 559.129 1147.86 622.752C1154.27 649.543 1156.07 676.649 1152.85 704.046C1152.78 704.654 1152.6 705.249 1152.14 707.407C1151 704.533 1150.37 702.954 1149.74 701.378C1135.88 666.81 1116.91 635.648 1089.2 610.274C1059.17 582.784 1023.57 566.503 984.117 558.059C929.839 546.441 877.614 552.266 827.67 576.864C804.848 588.105 783.95 602.248 764.397 618.954C764.175 619.16 764.247 619.167 764.247 619.167Z" fill="#222221"/>
<path d="M849.058 988.094C850.228 983.501 851.322 978.888 852.58 974.32C870.791 908.215 859.446 847.38 818.976 792.308C801.059 767.928 776.201 752.75 747.325 744.089C746.06 743.71 744.802 743.308 742.918 742.724C753.202 733.128 764.802 727.031 777.941 724.057C812.072 716.333 842.088 724.148 866.753 749.275C896.654 779.736 912.453 816.546 912.351 859.306C912.247 902.763 896.357 940.441 867.052 972.383C861.821 978.084 855.506 982.791 849.358 987.995C849.024 988.033 849.058 988.094 849.058 988.094Z" fill="#222221"/>
<path d="M406.178 381.922C448.737 389.759 476.35 415.825 493.599 453.399C510.589 490.41 515.817 529.841 513.226 570.344C512.813 576.81 512.04 583.282 510.945 589.668C509.551 597.803 505.945 605.003 498.948 609.688C482.353 620.799 465.556 631.607 448.832 642.525C444.775 645.173 441.65 643.639 438.856 640.308C429.409 629.045 426.316 615.989 429.671 601.967C433.264 586.948 437.146 571.88 442.485 557.418C462.338 503.634 453.951 454.088 421.386 407.902C414.997 398.842 407.874 390.3 400.658 380.96C402.695 381.322 404.233 381.595 406.178 381.922Z" fill="#222221"/>
<path d="M400.072 929.912C386.473 902.369 384.648 873.449 387.276 842.708C390.481 849.744 393.168 855.879 396.045 861.925C424.647 922.041 467.064 968.938 527.313 998.643C561.058 1015.28 596.893 1024.96 634.06 1030.02C641.045 1030.98 648.051 1031.78 655.058 1033.63C648.551 1034.31 642.056 1035.18 635.534 1035.64C566.996 1040.51 504.088 1024.28 447.659 984.708C427.456 970.54 411.32 952.512 400.072 929.912Z" fill="#232221"/>
<path d="M369.624 424.776C361.314 429.76 353.316 429.286 345.961 423.983C338.723 418.764 336.147 411.305 337.805 402.476C339.9 391.318 350.517 384.886 362.904 387.266C374.123 389.422 380.625 398.783 378.596 409.961C377.521 415.881 374.933 420.952 369.624 424.776Z" fill="#242321"/>
<path d="M536.999 617.588C536.926 618.056 536.5 617.958 536.287 618.007C536.074 603.087 536.074 588.118 536.074 573.15C536.407 573.148 536.74 573.146 537.073 573.144C537.073 587.803 537.073 602.462 536.999 617.588Z" fill="#846916"/>
<path d="M764.161 619.193C764.147 619.226 763.998 619.033 763.998 619.033C763.998 619.033 764.133 619.248 764.19 619.208C764.247 619.167 764.175 619.16 764.161 619.193Z" fill="#222221"/>
<path d="M849.005 988.004C848.794 988.157 848.603 988.339 848.412 988.521C848.51 988.278 848.607 988.035 848.882 987.943C849.058 988.094 849.024 988.033 849.005 988.004Z" fill="#222221"/>
</g>
<defs>
<clipPath id="clip0_1_40">
<rect width="1274" height="1274" fill="white"/>
</clipPath>
</defs>
</svg>
