<svg width="1274" height="1274" viewBox="0 0 1274 1274" fill="none" xmlns="http://www.w3.org/2000/svg">
<g clip-path="url(#clip0_1_2)">
<path d="M1275 614C1275 627.688 1275 641.375 1274.62 655.741C1273.16 672.544 1272.55 688.717 1270.87 704.779C1269.14 721.354 1266.61 737.86 1263.98 754.324C1259.58 781.867 1252.85 808.908 1243.87 835.277C1237.1 855.129 1229.32 874.661 1221.34 894.07C1208.96 924.206 1193.39 952.741 1175.46 979.906C1165.3 995.292 1154.58 1010.36 1143.34 1024.97C1132.34 1039.27 1121.06 1053.49 1108.64 1066.55C1088.33 1087.91 1067.75 1109.13 1044.28 1127.16C1027.56 1139.99 1010.92 1152.98 993.578 1164.94C966.267 1183.79 937.539 1200.36 907.188 1213.86C888.003 1222.39 868.766 1231.06 848.917 1237.79C824.767 1245.98 800.164 1253.1 775.357 1259C753.496 1264.2 731.183 1267.83 708.886 1270.75C691.914 1272.97 674.654 1272.98 657.526 1274.03C656.335 1274.11 655.175 1274.67 654 1275C644.312 1275 634.625 1275 624.259 1274.62C606.461 1273.16 589.302 1272.49 572.232 1270.88C556.765 1269.43 541.165 1268 526.031 1264.7C499.351 1258.88 472.699 1252.59 446.55 1244.77C408.525 1233.41 371.936 1218.1 337.335 1198.56C316.904 1187.02 296.951 1174.59 277.178 1161.94C250.037 1144.58 225.45 1123.84 201.809 1102.07C189.118 1090.38 177.138 1077.84 165.67 1064.94C152.046 1049.61 139.005 1033.74 126.272 1017.66C104.622 990.323 86.5249 960.62 70.4994 929.725C61.9445 913.233 54.404 896.177 47.1128 879.074C34.8406 850.287 25.0361 820.581 18.1953 790.068C13.207 767.819 9.53621 745.24 6.14598 722.678C3.9527 708.081 3.33795 693.249 1.96337 678.526C1.88265 677.662 1.33198 676.841 1 676C0.999997 650.646 0.999997 625.292 1.38123 599.26C2.50663 588.89 3.0901 579.182 4.03567 569.51C5.21616 557.434 6.08936 545.281 8.18742 533.353C11.29 515.715 14.9813 498.158 19.0839 480.722C28.6289 440.156 43.011 401.251 60.8154 363.622C77.1283 329.146 96.0683 296.128 119.062 265.674C134.171 245.664 150.254 226.362 166.491 207.244C174.276 198.079 183.244 189.881 192.007 181.594C203.048 171.153 214.005 160.552 225.763 150.959C241.85 137.833 258.238 124.992 275.244 113.098C307.278 90.6928 341.02 71.0707 377.199 56.0854C399.13 47.0016 421.328 38.4472 443.797 30.8008C478.128 19.1172 513.421 11.107 549.495 7.05658C568.604 4.91107 587.814 3.66977 606.973 1.97208C608.334 1.85155 609.659 1.33331 611 1C626.688 0.999998 642.375 0.999998 658.741 1.38161C674.714 2.83962 690.058 3.46339 705.291 5.11516C721.701 6.8946 738.16 8.87614 754.321 12.1418C777.281 16.7815 800.182 21.9742 822.757 28.2039C853.253 36.6194 882.657 48.2355 911.303 61.7054C948.372 79.1353 983.362 100.087 1016.44 124.195C1039.06 140.679 1060.72 158.443 1080.48 178.247C1097.06 194.862 1112.99 212.191 1128.23 230.039C1140.64 244.568 1152.08 259.994 1163.1 275.624C1183.74 304.914 1201.85 335.751 1216.19 368.652C1224.18 387.01 1232.45 405.348 1238.83 424.289C1246.61 447.384 1253.42 470.894 1259 494.615C1264.14 516.498 1267.77 538.804 1270.76 561.1C1272.94 577.41 1272.98 594.007 1274.03 610.473C1274.11 611.664 1274.67 612.825 1275 614ZM216.549 253.057C216.329 253.306 216.108 253.553 215.889 253.802C90.159 396.394 43.5537 561.524 78.2891 748.252C100.556 867.95 158.079 969.807 246.888 1052.85C360.017 1158.64 494.775 1210.56 649.934 1208.48C685.656 1208 720.984 1203.73 755.899 1196.13C870.581 1171.17 969.156 1116.73 1050.11 1031.95C1152.11 925.129 1203.91 796.784 1208.75 649.405C1210.06 609.498 1206.58 569.82 1198.74 530.685C1170.96 392.067 1102.44 277.713 991.518 189.982C884.505 105.341 761.686 65.8203 625.446 67.494C588.198 67.9516 551.362 72.2564 515.054 80.4845C397.957 107.021 298.836 164.804 216.549 253.057Z" fill="#F5BB0A"/>
<path d="M216.8 252.804C298.836 164.804 397.957 107.021 515.054 80.4845C551.362 72.2564 588.198 67.9516 625.446 67.494C761.686 65.8203 884.505 105.341 991.518 189.982C1102.44 277.713 1170.96 392.067 1198.74 530.685C1206.58 569.82 1210.06 609.498 1208.75 649.405C1203.91 796.784 1152.11 925.129 1050.11 1031.95C969.156 1116.73 870.581 1171.17 755.899 1196.13C720.984 1203.73 685.656 1208 649.934 1208.48C494.775 1210.56 360.017 1158.64 246.888 1052.85C158.079 969.807 100.556 867.95 78.2891 748.252C43.5537 561.524 90.1589 396.394 215.889 253.802C216.108 253.553 216.329 253.306 216.8 252.804ZM849.708 987.956C851.369 986.871 853.217 985.991 854.663 984.67C891.514 950.99 912.013 909.478 912.302 859.281C912.554 815.549 895.93 778.218 864.98 747.472C836.057 718.74 796.097 714.95 763.823 729.003C756.422 732.225 749.826 737.297 742.859 741.518C744.859 743.327 746.119 743.725 747.385 744.103C781.611 754.341 808.96 774.108 827.785 804.479C862.152 859.925 870.28 919.009 850.367 981.536C849.691 983.66 849.49 985.935 848.794 987.759C848.655 987.971 848.515 988.182 848.376 988.394C848.585 988.265 848.795 988.136 849.708 987.956ZM764.51 618.836C769.698 614.663 774.773 610.341 780.089 606.337C843.861 558.314 914.267 540.634 992.724 560.047C1033.53 570.143 1069.41 589.035 1098.74 619.581C1121.57 643.352 1137.71 671.276 1149.87 701.69C1150.44 703.111 1151.08 704.499 1152.21 707.078C1152.61 704.943 1152.81 704.185 1152.9 703.414C1156.03 676.348 1154.19 649.585 1147.93 623.105C1133.15 560.628 1097.09 515.583 1037.89 489.927C1003.12 474.858 967.049 473.535 930.223 480.982C852.307 496.738 796.299 539.519 765.52 613.676C764.792 615.43 764.629 617.419 764.032 619.336L764.057 619.035C764.057 619.035 764.047 619.35 764.51 618.836ZM536.011 618.903C535.113 633.886 530.673 639.01 516.083 641.817C513.633 642.288 511.162 642.683 508.683 642.971C492.724 644.826 492.488 645.073 492.488 660.939C492.488 689.919 492.488 718.899 492.488 747.879C492.488 754.802 492.488 761.725 492.488 768.706C507.61 768.706 521.688 768.706 536.339 768.706C536.339 736.697 536.339 704.978 536.339 673.308C573.83 673.308 610.744 673.308 647.776 673.308C647.867 674.243 647.983 674.885 647.984 675.526C648.02 703.35 648.092 731.175 648.046 758.999C648.032 767.607 650.31 770.051 658.902 770.003C671.898 769.931 684.893 769.884 697.889 769.836C702.178 769.82 706.468 769.834 711.321 769.834C710.315 763.292 709.531 757.38 708.484 751.514C703.597 724.127 702.448 696.598 705.377 668.932C709.508 629.917 721.475 593.281 738.852 558.231C769.337 496.743 813.882 449.62 877.333 421.558C927.23 399.491 978.875 391.857 1032.84 401.993C1058.09 406.735 1081.7 415.946 1104.66 427.141C1106.31 427.95 1108.05 428.591 1109.76 429.311C1109.45 426.988 1108.66 425.551 1107.77 424.173C1094.75 403.957 1078.08 387.345 1057.57 374.885C1002.45 341.402 943.364 332.742 880.845 347.985C810.033 365.25 753.812 403.271 715.781 466.229C708.953 477.533 703.691 489.868 698.56 502.086C694.605 511.504 688.144 515.991 678.244 515.794C671.757 515.665 665.276 515.155 658.794 514.789C650.299 514.309 648.031 516.543 648.05 524.948C648.126 558.603 648.156 592.257 648.149 625.912C648.148 634.491 646.426 636.168 637.929 636.158C606.771 636.122 575.613 636.075 544.455 635.958C542.05 635.949 539.647 635.364 536.926 635.005C536.926 629.017 536.926 623.537 537.078 617.122C537.078 602.517 537.078 587.911 537.078 573.306C536.743 573.306 536.409 573.307 536.074 573.307C536.074 588.223 536.074 603.139 536.011 618.903ZM336.967 703.469C344.042 688.002 351.117 672.536 358.109 657.251C357.39 657.738 356.261 658.359 355.298 659.176C334.095 677.147 312.421 694.601 291.862 713.281C271.909 731.409 254.876 752.249 243.869 777.151C236.379 794.097 230.171 811.608 223.045 829.743C222.642 821.321 221.652 813.262 221.981 805.258C223.298 773.144 234.131 743.931 251.641 717.427C270.907 688.265 291.224 659.791 311.333 631.194C325.964 610.388 339.603 589.161 344.444 563.622C346.085 554.968 347.304 546.234 348.715 537.537C348.182 537.399 347.648 537.261 347.114 537.123C345.719 539.503 344.431 541.955 342.905 544.249C339.869 548.812 337.227 553.784 333.507 557.722C305.723 587.141 277.992 616.619 249.712 645.558C205.716 690.578 187.849 744.703 192.323 806.799C195.556 851.659 211.425 891.896 237.932 928.014C244.644 937.161 252.015 945.825 259.083 954.711C259.141 950.05 258.198 946.012 257.502 941.932C254.434 923.948 252.79 905.919 257.077 887.9C258.24 883.01 259.739 878.081 264.564 874.531C265.657 879.893 266.532 884.758 267.648 889.567C278.836 937.783 303.955 977.902 339.516 1011.7C368.02 1038.79 400.502 1059.55 438.683 1070.28C449.047 1073.2 459.845 1074.56 471.506 1076.85C470.563 1074.96 470.494 1074.58 470.269 1074.41C469.208 1073.61 468.112 1072.85 467.015 1072.1C437.187 1051.6 410.121 1028.05 387.92 999.319C340.387 937.8 320.596 868.53 331.971 791.33C335.402 768.042 341.812 745.193 346.835 722.139C347.165 720.622 347.298 719.063 347.522 717.524C346.981 717.401 346.439 717.277 345.897 717.154C338.526 736.137 331.154 755.121 323.783 774.105C323.558 749.819 328.384 726.67 336.967 703.469ZM271.722 475.218C268.009 480.939 263.968 486.478 260.65 492.419C253.035 506.057 249.648 520.583 253.004 536.177C258.138 560.038 283.807 571.961 304.044 559.708C317.286 551.689 326.246 540.066 329.923 524.966C335.06 503.868 331.424 483.722 322.403 464.245C317.521 453.705 312.497 443.162 308.683 432.221C306.241 425.216 302.308 420.397 296.101 416.913C291.216 414.171 286.414 411.281 281.32 408.309C285.474 402.237 289.274 396.619 293.138 391.046C309.911 366.852 331.994 350.209 360.987 343.42C384.584 337.894 407.932 340.556 431.259 345.383C447.04 348.649 462.776 353.205 478.732 354.315C505.411 356.171 521.359 345.48 529.361 322.184C533.5 310.136 534.129 297.741 532.34 285.204C530.958 275.524 528.005 266.392 522.085 258.452C515.624 249.786 512.034 249.215 502.734 254.591C491.499 261.086 480.099 267.296 468.848 273.764C461.793 277.818 454.064 277.987 445.835 278.54C449.134 268.827 452.143 259.522 455.466 250.329C458.104 243.029 456.769 236.389 452.451 228.562C446.678 231.387 440.322 233.292 435.449 237.097C418.386 250.422 401.902 264.487 385.034 278.066C381.387 281.002 377.054 283.087 372.155 286.108C372.155 277.934 372.308 271.162 372.124 264.399C371.671 247.687 359.788 240.718 345.28 249.096C340.567 251.818 336.347 255.998 333.021 260.363C328.711 266.021 325.371 272.449 321.886 278.697C317.619 286.347 313.634 294.155 309.405 302.124C308.508 299.981 307.619 298.026 306.869 296.018C306.113 293.995 305.577 291.889 304.802 289.873C302.424 283.689 297.467 281.429 292.188 285.315C286.806 289.276 281.161 293.853 277.838 299.466C264.747 321.582 264.471 344.639 275.452 367.772C277.94 373.014 281.002 378.01 284.103 382.928C289.015 390.719 288.487 392.99 280.064 397.071C275.724 399.174 271.309 401.122 266.94 403.167C254.014 409.214 241.921 416.565 232.399 427.354C227.269 433.166 222.92 439.666 218.218 445.856C218.611 446.201 219.004 446.545 219.396 446.89C243.976 442.357 268.516 442.341 293.885 446.881C286.259 456.603 279.19 465.614 271.722 475.218ZM793.07 638.578C774.536 651.948 759.425 668.257 749.529 689.175C753.065 687.888 756.246 686.19 759.385 684.418C787.633 668.481 817.698 661.265 850.091 665.986C892.313 672.139 927.942 690.593 954.958 724.054C994.524 773.058 1006.33 829.651 999.435 891.096C997.882 904.932 995.915 918.722 994.139 932.534C994.645 932.975 995.151 933.417 995.656 933.859C996.472 932.43 997.063 930.798 998.137 929.6C1024.14 900.582 1043.68 867.836 1055.8 830.695C1069.38 789.041 1069.12 747.974 1051.53 707.409C1032.2 662.811 998.17 634.458 953.256 618.052C927.447 608.624 900.949 603.82 873.391 606.523C843.79 609.427 817.499 620.735 793.07 638.578ZM405.771 381.866C404.233 381.595 402.695 381.324 400.66 380.965C407.877 390.305 415.002 398.846 421.389 407.906C453.95 454.092 462.345 503.636 442.484 557.419C437.144 571.881 433.251 586.947 429.674 601.969C426.337 615.982 429.4 629.05 438.859 640.316C441.846 643.874 445.037 645.029 449.265 642.256C465.406 631.666 481.654 621.238 497.773 610.613C505.438 605.56 509.699 598.1 511.035 589.171C518.002 542.633 512.998 497.343 493.925 454.333C476.993 416.153 449.105 389.904 405.771 381.866ZM400.219 930.258C413.188 956.159 432.939 975.803 457.086 991.207C508.9 1024.26 565.598 1039.12 626.963 1036.06C636.247 1035.6 645.505 1034.6 654.775 1033.85C653.81 1032.47 652.885 1032.23 651.946 1032.14C625.373 1029.63 599.259 1024.75 573.721 1016.95C528.708 1003.19 488.766 980.706 455.3 947.372C430.401 922.572 411.15 893.75 396.096 862.073C393.218 856.018 390.538 849.87 387.288 842.711C384.677 873.515 386.477 902.398 400.219 930.258ZM369.931 424.562C374.936 420.95 377.519 415.882 378.585 409.957C380.634 398.579 373.843 389.056 362.409 387.188C349.767 385.123 339.615 391.575 337.708 402.965C336.264 411.594 338.869 418.906 345.963 423.985C353.338 429.266 361.317 429.757 369.931 424.562Z" fill="#212121"/>
<path d="M536.926 618.056C536.926 623.537 536.926 629.017 536.926 635.005C539.647 635.364 542.05 635.949 544.455 635.958C575.613 636.075 606.771 636.122 637.929 636.158C646.426 636.168 648.148 634.491 648.149 625.912C648.156 592.257 648.126 558.603 648.05 524.948C648.031 516.543 650.299 514.309 658.795 514.789C665.276 515.155 671.757 515.665 678.244 515.794C688.144 515.991 694.605 511.504 698.56 502.086C703.691 489.868 708.953 477.533 715.781 466.229C753.812 403.271 810.033 365.25 880.845 347.985C943.364 332.742 1002.45 341.402 1057.57 374.885C1078.08 387.345 1094.75 403.957 1107.77 424.173C1108.66 425.551 1109.45 426.988 1109.76 429.311C1108.05 428.591 1106.31 427.95 1104.66 427.141C1081.7 415.946 1058.09 406.735 1032.84 401.993C978.875 391.857 927.23 399.491 877.333 421.558C813.882 449.62 769.337 496.743 738.852 558.231C721.475 593.281 709.508 629.917 705.377 668.932C702.448 696.598 703.597 724.127 708.484 751.515C709.531 757.38 710.315 763.292 711.321 769.834C706.468 769.834 702.178 769.82 697.889 769.836C684.893 769.884 671.898 769.932 658.902 770.003C650.31 770.051 648.032 767.607 648.046 758.999C648.092 731.175 648.02 703.351 647.984 675.526C647.983 674.885 647.867 674.243 647.776 673.308C610.744 673.308 573.83 673.308 536.339 673.308C536.339 704.978 536.339 736.697 536.339 768.706C521.688 768.706 507.61 768.706 492.488 768.706C492.488 761.725 492.488 754.802 492.488 747.88C492.488 718.899 492.488 689.919 492.488 660.939C492.488 645.073 492.724 644.826 508.683 642.971C511.162 642.683 513.633 642.288 516.083 641.817C530.673 639.01 535.113 633.886 536.256 618.43C536.5 617.957 536.926 618.056 536.926 618.056Z" fill="#F4BA0A"/>
<path d="M336.844 703.838C328.384 726.67 323.558 749.819 323.783 774.105C331.154 755.121 338.526 736.137 345.897 717.154C346.439 717.277 346.981 717.401 347.522 717.524C347.298 719.063 347.165 720.622 346.835 722.139C341.812 745.193 335.402 768.042 331.971 791.33C320.596 868.53 340.387 937.8 387.92 999.319C410.121 1028.05 437.187 1051.6 467.015 1072.1C468.112 1072.85 469.208 1073.61 470.269 1074.41C470.494 1074.58 470.563 1074.96 471.506 1076.85C459.845 1074.56 449.047 1073.2 438.683 1070.28C400.502 1059.55 368.02 1038.79 339.516 1011.7C303.955 977.902 278.836 937.783 267.648 889.567C266.532 884.758 265.657 879.893 264.564 874.531C259.739 878.081 258.24 883.01 257.077 887.9C252.79 905.919 254.434 923.948 257.502 941.932C258.198 946.012 259.142 950.05 259.083 954.711C252.015 945.825 244.644 937.161 237.932 928.014C211.425 891.896 195.556 851.659 192.324 806.799C187.85 744.703 205.716 690.578 249.712 645.558C277.992 616.619 305.723 587.141 333.507 557.722C337.227 553.784 339.869 548.812 342.905 544.249C344.431 541.955 345.719 539.503 347.114 537.123C347.648 537.261 348.182 537.399 348.716 537.537C347.304 546.234 346.085 554.968 344.444 563.622C339.603 589.161 325.964 610.388 311.333 631.194C291.224 659.791 270.907 688.265 251.641 717.427C234.131 743.931 223.298 773.144 221.981 805.258C221.652 813.262 222.642 821.321 223.045 829.743C230.171 811.609 236.38 794.097 243.869 777.151C254.876 752.249 271.909 731.409 291.862 713.281C312.421 694.601 334.095 677.147 355.298 659.176C356.261 658.359 357.39 657.738 358.109 657.251C351.117 672.536 344.042 688.002 336.844 703.838Z" fill="#F4BA0A"/>
<path d="M271.921 474.921C279.19 465.614 286.259 456.603 293.885 446.881C268.516 442.341 243.976 442.357 219.396 446.89C219.004 446.545 218.611 446.201 218.218 445.856C222.92 439.666 227.269 433.166 232.399 427.354C241.921 416.565 254.014 409.214 266.94 403.167C271.309 401.122 275.724 399.174 280.064 397.071C288.487 392.99 289.015 390.719 284.103 382.928C281.002 378.01 277.94 373.014 275.452 367.772C264.471 344.639 264.747 321.582 277.838 299.466C281.161 293.853 286.806 289.276 292.188 285.315C297.468 281.429 302.424 283.689 304.802 289.873C305.577 291.889 306.113 293.995 306.869 296.018C307.619 298.026 308.508 299.981 309.406 302.124C313.634 294.155 317.619 286.347 321.886 278.697C325.371 272.449 328.711 266.021 333.021 260.363C336.347 255.998 340.567 251.818 345.28 249.096C359.788 240.718 371.671 247.687 372.124 264.399C372.308 271.162 372.155 277.934 372.155 286.108C377.054 283.087 381.387 281.002 385.034 278.066C401.902 264.487 418.386 250.422 435.449 237.097C440.322 233.292 446.678 231.387 452.451 228.562C456.769 236.389 458.104 243.029 455.466 250.329C452.144 259.522 449.134 268.827 445.835 278.54C454.065 277.987 461.794 277.818 468.848 273.764C480.1 267.296 491.499 261.086 502.734 254.591C512.034 249.215 515.624 249.786 522.085 258.452C528.005 266.392 530.958 275.524 532.34 285.204C534.129 297.741 533.5 310.136 529.361 322.184C521.359 345.48 505.411 356.171 478.732 354.315C462.776 353.205 447.04 348.649 431.259 345.383C407.932 340.556 384.584 337.894 360.987 343.42C331.994 350.209 309.911 366.852 293.138 391.046C289.274 396.619 285.474 402.237 281.32 408.309C286.414 411.281 291.216 414.171 296.101 416.913C302.308 420.397 306.241 425.216 308.683 432.221C312.497 443.162 317.521 453.705 322.403 464.245C331.424 483.722 335.06 503.868 329.923 524.966C326.246 540.066 317.286 551.689 304.044 559.708C283.807 571.961 258.138 560.038 253.004 536.177C249.648 520.583 253.035 506.057 260.65 492.419C263.968 486.478 268.009 480.939 271.921 474.921Z" fill="#F4BA0A"/>
<path d="M793.349 638.353C817.499 620.735 843.79 609.427 873.391 606.523C900.949 603.82 927.447 608.624 953.256 618.052C998.17 634.458 1032.2 662.811 1051.53 707.409C1069.12 747.974 1069.38 789.041 1055.8 830.695C1043.68 867.836 1024.14 900.582 998.137 929.6C997.063 930.798 996.472 932.43 995.656 933.859C995.151 933.418 994.645 932.976 994.139 932.534C995.915 918.722 997.882 904.932 999.435 891.096C1006.33 829.651 994.524 773.058 954.958 724.054C927.942 690.593 892.313 672.139 850.091 665.986C817.698 661.265 787.633 668.481 759.385 684.418C756.246 686.19 753.065 687.888 749.529 689.175C759.425 668.257 774.536 651.948 793.349 638.353Z" fill="#F4BA0A"/>
<path d="M764.203 619.298C764.629 617.419 764.793 615.43 765.52 613.676C796.299 539.519 852.307 496.738 930.223 480.982C967.049 473.535 1003.12 474.858 1037.89 489.927C1097.09 515.583 1133.15 560.628 1147.93 623.105C1154.19 649.585 1156.03 676.348 1152.9 703.414C1152.81 704.185 1152.61 704.943 1152.21 707.078C1151.08 704.499 1150.44 703.111 1149.87 701.69C1137.71 671.276 1121.57 643.352 1098.74 619.581C1069.41 589.036 1033.53 570.143 992.724 560.047C914.267 540.634 843.861 558.314 780.089 606.337C774.773 610.341 769.698 614.663 764.31 619.057C764.109 619.277 764.203 619.298 764.203 619.298Z" fill="#F4BA0A"/>
<path d="M849.068 988.139C849.49 985.935 849.691 983.66 850.367 981.536C870.28 919.009 862.152 859.925 827.785 804.479C808.96 774.108 781.611 754.341 747.385 744.103C746.119 743.725 744.859 743.327 742.859 741.518C749.826 737.297 756.422 732.225 763.823 729.003C796.097 714.95 836.057 718.74 864.98 747.472C895.93 778.218 912.554 815.549 912.302 859.281C912.013 909.478 891.514 950.99 854.663 984.67C853.217 985.991 851.369 986.871 849.374 988.014C849.04 988.071 849.068 988.139 849.068 988.139Z" fill="#F4BA0A"/>
<path d="M406.177 381.92C449.105 389.904 476.993 416.153 493.925 454.333C512.998 497.343 518.002 542.633 511.035 589.171C509.699 598.1 505.438 605.56 497.773 610.613C481.654 621.238 465.407 631.667 449.265 642.256C445.037 645.029 441.846 643.874 438.859 640.316C429.4 629.05 426.337 615.982 429.674 601.969C433.251 586.947 437.144 571.881 442.484 557.419C462.345 503.636 453.95 454.092 421.389 407.906C415.002 398.846 407.877 390.305 400.66 380.965C402.695 381.324 404.233 381.595 406.177 381.92Z" fill="#F4BA0A"/>
<path d="M400.074 929.912C386.477 902.398 384.677 873.515 387.288 842.711C390.538 849.87 393.218 856.018 396.096 862.073C411.15 893.75 430.401 922.572 455.3 947.372C488.766 980.706 528.708 1003.19 573.721 1016.95C599.259 1024.75 625.373 1029.63 651.946 1032.14C652.885 1032.23 653.81 1032.47 654.775 1033.85C645.505 1034.6 636.247 1035.6 626.963 1036.06C565.598 1039.12 508.9 1024.26 457.086 991.207C432.939 975.803 413.188 956.159 400.074 929.912Z" fill="#F3BA0A"/>
<path d="M369.626 424.772C361.317 429.757 353.338 429.266 345.963 423.985C338.869 418.906 336.264 411.594 337.708 402.965C339.616 391.575 349.767 385.123 362.409 387.188C373.843 389.056 380.634 398.579 378.585 409.957C377.519 415.882 374.936 420.95 369.626 424.772Z" fill="#F2B90A"/>
<path d="M537.002 617.589C536.926 618.056 536.5 617.957 536.287 618.006C536.074 603.139 536.074 588.223 536.074 573.307C536.409 573.307 536.743 573.306 537.078 573.306C537.078 587.911 537.078 602.517 537.002 617.589Z" fill="#927315"/>
<path d="M764.078 619.314C764.047 619.35 764.058 619.035 764.058 619.035C764.058 619.035 764.032 619.336 764.117 619.317C764.203 619.298 764.109 619.277 764.078 619.314Z" fill="#F4BA0A"/>
<path d="M849.022 988.039C848.795 988.136 848.585 988.265 848.376 988.394C848.515 988.182 848.655 987.971 848.931 987.949C849.068 988.139 849.04 988.071 849.022 988.039Z" fill="#F4BA0A"/>
</g>
<defs>
<clipPath id="clip0_1_2">
<rect width="1274" height="1274" fill="white"/>
</clipPath>
</defs>
</svg>
