<?xml version="1.0" encoding="UTF-8"?>
<svg id="Layer_1" data-name="Layer 1" xmlns="http://www.w3.org/2000/svg" version="1.1" viewBox="0 0 287.7 243.8">
  <defs>
    <style>
      .cls-1 {
        fill: #fff;
        stroke-width: 0px;
      }
    </style>
  </defs>
  <path class="cls-1" d="M245.2,131.5h-22c2.2,6.2,3.5,12.8,3.5,19.7v83.3c0,2.9-.5,5.7-1.4,8.2h36.4c13.6,0,24.7-11.1,24.7-24.7v-45.4c0-22.7-18.5-41.1-41.1-41.1Z"/>
  <path class="cls-1" d="M61.1,151.2c0-6.9,1.2-13.6,3.5-19.7h-22c-22.7,0-41.1,18.5-41.1,41.1v45.4c0,13.6,11.1,24.7,24.7,24.7h36.4c-.9-2.6-1.4-5.3-1.4-8.2v-83.3Z"/>
  <path class="cls-1" d="M169,110.1h-50.4c-22.7,0-41.1,18.5-41.1,41.1v83.3c0,4.5,3.7,8.2,8.2,8.2h116.2c4.5,0,8.2-3.7,8.2-8.2v-83.3c0-22.7-18.5-41.1-41.1-41.1Z"/>
  <path class="cls-1" d="M143.9,1c-27.3,0-49.5,22.2-49.5,49.5s10.2,34.7,25.3,43.2c7.2,4,15.4,6.3,24.2,6.3s17-2.3,24.2-6.3c15.1-8.5,25.3-24.6,25.3-43.2,0-27.3-22.2-49.5-49.5-49.5Z"/>
  <path class="cls-1" d="M57,47.1c-20.4,0-37,16.6-37,37s16.6,37,37,37,10.1-1.1,14.6-3c7.7-3.3,14.1-9.2,18.1-16.6,2.8-5.2,4.3-11.1,4.3-17.4,0-20.4-16.6-37-37-37Z"/>
  <path class="cls-1" d="M230.7,47.1c-20.4,0-37,16.6-37,37s1.6,12.2,4.3,17.4c3.9,7.4,10.3,13.3,18.1,16.6,4.5,1.9,9.4,3,14.6,3,20.4,0,37-16.6,37-37s-16.6-37-37-37Z"/>
</svg>